<svg width="7" height="13" viewBox="0 0 7 13" fill="none" xmlns="http://www.w3.org/2000/svg">
<path d="M6.65181 0.629724L5.13411 0.627289C3.42902 0.627289 2.32712 1.7578 2.32712 3.50757V4.83558H0.801144C0.669281 4.83558 0.5625 4.94248 0.5625 5.07434V6.99847C0.5625 7.13033 0.669403 7.23711 0.801144 7.23711H2.32712V12.0923C2.32712 12.2242 2.4339 12.3309 2.56577 12.3309H4.55674C4.6886 12.3309 4.79538 12.224 4.79538 12.0923V7.23711H6.57961C6.71147 7.23711 6.81825 7.13033 6.81825 6.99847L6.81898 5.07434C6.81898 5.01103 6.79378 4.95039 6.74909 4.90559C6.70441 4.86078 6.64353 4.83558 6.58022 4.83558H4.79538V3.70981C4.79538 3.16872 4.92432 2.89404 5.62917 2.89404L6.65157 2.89367C6.78331 2.89367 6.89009 2.78677 6.89009 2.65503V0.868368C6.89009 0.736748 6.78343 0.629967 6.65181 0.629724Z" fill="white"/>
</svg>
