<svg width="41" height="40" viewBox="0 0 41 40" fill="none" xmlns="http://www.w3.org/2000/svg">
<path d="M34.9322 17.6822C34.7844 16.6743 33.9207 15.9641 32.9343 15.9666C32.0824 15.9691 31.3246 16.5021 31.0414 17.2971H26.8851V14.636H29.5737C29.945 14.636 30.2458 14.3383 30.2458 13.9707V11.1874C31.3355 10.8057 31.8875 9.59153 31.4279 8.52126C31.0347 7.60484 29.9912 7.1117 29.0242 7.38446C27.895 7.70297 27.2867 8.89132 27.6724 9.96991C27.8757 10.5387 28.3269 10.9853 28.9015 11.1865V13.3055H26.8851V11.9749C26.8851 11.6073 26.5844 11.3096 26.213 11.3096H24.8688V7.86014C25.9584 7.47843 26.5104 6.2643 26.0509 5.19486C25.6577 4.27843 24.615 3.78529 23.6472 4.05806C22.518 4.37656 21.9097 5.56492 22.2953 6.64351C22.4987 7.21149 22.9498 7.65889 23.5245 7.86014V11.3096H20.836V0.748289C20.836 0.380721 20.5352 0.0830078 20.1638 0.0830078C11.8723 0.0830078 5.37695 6.0248 5.37695 13.6098C5.37695 17.2132 6.82203 21.9832 9.14845 26.0589C9.56601 26.7907 10.1113 27.5599 10.6885 28.3741C11.9084 30.0955 13.2661 32.0315 13.414 33.7163C12.8973 34.078 12.5948 34.6693 12.6066 35.2955C12.6082 35.7454 12.7654 36.1811 13.051 36.5304C12.6528 36.9188 12.431 37.4502 12.4343 38.0032C12.4352 39.105 13.3375 39.9982 14.4507 39.999H25.877C26.9977 39.9924 27.9009 39.0876 27.8933 37.9782C27.8933 37.9707 27.8933 37.9641 27.8933 37.9566C27.8925 37.4152 27.6699 36.898 27.275 36.5238C27.5648 36.1604 27.722 35.7113 27.722 35.2489C27.7203 34.1953 26.8557 33.3429 25.7904 33.3445C25.7619 33.3445 25.7333 33.3454 25.7056 33.3462H20.836V20.6235H22.1802V22.6194C22.1802 22.987 22.481 23.2847 22.8524 23.2847H24.8688V24.0722C23.8186 24.4398 23.2682 25.5799 23.6396 26.6194C24.0109 27.6589 25.1628 28.2036 26.213 27.836C27.2632 27.4685 27.8135 26.3283 27.4422 25.2888C27.2389 24.7208 26.7877 24.2734 26.213 24.0722V22.6194C26.213 22.2518 25.9122 21.9541 25.5409 21.9541H23.5245V20.6235H26.213C26.5844 20.6235 26.8851 20.3258 26.8851 19.9583V18.6277H31.0423C31.4338 19.7154 32.6823 20.2576 33.7686 19.7745C34.5777 19.4144 35.0599 18.552 34.9322 17.6822ZM29.5737 8.67511C29.945 8.67511 30.2458 8.97282 30.2458 9.34039C30.2458 9.70796 29.945 10.0057 29.5737 10.0057C29.2023 10.0057 28.9015 9.70796 28.9015 9.34039C28.9015 8.97365 29.2023 8.67594 29.5737 8.67511ZM11.7891 27.6107C11.2312 26.8231 10.7044 26.0797 10.3188 25.4044C8.13353 21.5757 6.72122 16.9462 6.72122 13.6098C6.72122 6.97532 12.2781 1.73457 19.4917 1.42771V6.07552C19.3136 6.08883 19.1313 6.10463 18.9364 6.12875C18.6507 6.16284 18.4197 6.37324 18.36 6.65182L18.155 7.61565C17.9861 7.65557 17.8181 7.70047 17.6501 7.75037L16.9805 7.01107C16.7889 6.79818 16.4814 6.73083 16.2167 6.84309C15.4648 7.16409 14.754 7.5749 14.1021 8.06471C13.8727 8.23602 13.7786 8.5329 13.8676 8.80317L14.176 9.73374C14.0491 9.85182 13.9256 9.9749 13.8055 10.1005L12.8662 9.79527C12.5931 9.70796 12.294 9.80026 12.1201 10.0265C11.6236 10.6718 11.2085 11.3753 10.8842 12.1204C10.7716 12.3824 10.8397 12.6868 11.0539 12.8764L11.8017 13.5391C11.7513 13.7038 11.7067 13.8685 11.6664 14.0339L10.6213 14.2402C10.307 14.3026 10.081 14.5753 10.081 14.8922V17.1608C10.081 17.4776 10.307 17.7512 10.6213 17.8127L11.6664 18.019C11.7059 18.1836 11.7513 18.3491 11.8008 18.5138L11.0531 19.1766C10.8389 19.367 10.7708 19.6705 10.8834 19.9325C11.2077 20.6776 11.6227 21.3803 12.1193 22.0265C12.2932 22.2527 12.5923 22.3458 12.8653 22.2576L13.8046 21.9524C13.9248 22.078 14.0483 22.2003 14.1751 22.3192L13.8668 23.2481C13.7769 23.5184 13.871 23.8152 14.1004 23.9865C14.7523 24.478 15.4631 24.8888 16.2159 25.2098C16.4806 25.3213 16.7881 25.2531 16.9796 25.0418L17.6492 24.3026C17.8173 24.3524 17.9853 24.3974 18.1542 24.4373L18.3583 25.4011C18.4171 25.6797 18.649 25.8901 18.9347 25.925C19.1296 25.9483 19.3119 25.9649 19.49 25.9782V33.347H14.7271C14.4541 31.3861 13.051 29.3919 11.7891 27.6107ZM14.1147 15.9932C14.1189 19.0402 16.4327 21.5998 19.4917 21.9416V24.2294L19.3808 23.7055C19.3245 23.4402 19.112 23.2356 18.8423 23.1874C18.444 23.1159 18.0525 23.0111 17.6711 22.8747C17.598 22.8489 17.5207 22.8356 17.4434 22.8356C17.2527 22.8356 17.0704 22.9163 16.9426 23.0568L16.3108 23.7545C15.9605 23.5816 15.6228 23.3845 15.2993 23.1666L15.5908 22.2876C15.6765 22.0298 15.595 21.747 15.3867 21.5716C15.0766 21.3121 14.7893 21.0269 14.5263 20.7208C14.3491 20.5154 14.0634 20.4356 13.8038 20.5196L12.9157 20.809C12.6948 20.4888 12.4965 20.1537 12.3217 19.8069L13.0275 19.1816C13.2308 19.0003 13.3039 18.7159 13.2115 18.4614C13.0737 18.0847 12.9687 17.6963 12.8956 17.3021C12.8469 17.0335 12.636 16.8215 12.3654 16.7682L11.4261 16.582V15.4044L12.3654 15.219C12.636 15.1658 12.8469 14.9537 12.8956 14.6851C12.9687 14.2909 13.0737 13.9026 13.2115 13.525C13.3039 13.2697 13.2308 12.9853 13.0266 12.8048L12.3217 12.1795C12.4973 11.8327 12.6956 11.4984 12.9157 11.1774L13.8038 11.4668C14.0634 11.55 14.3482 11.471 14.5263 11.2655C14.7893 10.9587 15.0775 10.6734 15.3875 10.4123C15.5959 10.2377 15.6765 9.95494 15.5908 9.69798L15.2993 8.81898C15.6228 8.6011 15.9605 8.40401 16.3108 8.23103L16.9426 8.92875C17.1258 9.12999 17.4131 9.20234 17.6702 9.11087C18.0508 8.97448 18.4423 8.8697 18.8414 8.79819C19.1111 8.74995 19.3237 8.54538 19.38 8.2801L19.4917 7.75619V10.0431C16.4327 10.3865 14.1189 12.9462 14.1147 15.9932ZM19.4917 11.3895V20.5969C16.9233 20.2327 15.1388 17.8768 15.506 15.3337C15.8025 13.2888 17.4257 11.6822 19.4917 11.3895ZM26.5491 37.9865C26.5491 38.3633 26.2483 38.6693 25.877 38.6693H14.4507C14.0726 38.6626 13.771 38.3466 13.7778 37.9624C13.7778 37.9541 13.7786 37.9466 13.7786 37.9383C13.7786 37.5616 14.0794 37.2556 14.4507 37.2556H25.877C26.255 37.2622 26.5558 37.5782 26.5499 37.9624C26.5499 37.9707 26.5499 37.9782 26.5491 37.9865ZM25.7047 34.6776C26.0433 34.6477 26.3432 34.8872 26.3743 35.2132C26.376 35.2348 26.3777 35.2572 26.3769 35.2789C26.3769 35.6356 26.0761 35.925 25.7047 35.925H14.623C14.2449 35.9192 13.9433 35.619 13.95 35.2556C13.95 35.2547 13.95 35.2531 13.95 35.2522C13.9559 35.0344 14.0895 34.8364 14.2877 34.7416C14.423 34.6768 14.523 34.6676 14.623 34.6776H25.7047ZM25.5409 25.3071C25.9122 25.3071 26.213 25.6048 26.213 25.9724C26.213 26.34 25.9122 26.6377 25.5409 26.6377C25.1695 26.6377 24.8688 26.34 24.8688 25.9724C24.8688 25.6057 25.1695 25.308 25.5409 25.3071ZM24.1966 5.3487C24.568 5.3487 24.8688 5.64642 24.8688 6.01399C24.8688 6.38155 24.568 6.67927 24.1966 6.67927C23.8253 6.67927 23.5245 6.38155 23.5245 6.01399C23.5245 5.64725 23.8253 5.34954 24.1966 5.3487ZM25.5409 19.293H20.836V12.6402H25.5409V19.293ZM32.9343 18.6543C32.563 18.6543 32.2622 18.3566 32.2622 17.989C32.2622 17.6215 32.563 17.3238 32.9343 17.3238C33.3057 17.3238 33.6065 17.6215 33.6065 17.989C33.6065 18.3566 33.3057 18.6543 32.9343 18.6543Z" fill="#52555A"/>
<path d="M26.6452 30.4604C26.4083 30.8796 26.1982 31.3137 26.0176 31.7602L27.2677 32.2501C27.4282 31.8567 27.6131 31.4742 27.8231 31.1041L26.6452 30.4604Z" fill="#0DB0DF"/>
<path d="M28.1586 28.1172C27.8948 28.4931 27.631 28.8748 27.3789 29.2606L28.5072 29.9833C28.7517 29.6107 29.0063 29.2415 29.2617 28.8773L28.1586 28.1172Z" fill="#0DB0DF"/>
<path d="M29.6877 25.9038C29.4609 26.2597 29.208 26.6281 28.9434 27.0065L30.0473 27.7658C30.3246 27.3708 30.5884 26.9857 30.8253 26.6123L29.6877 25.9038Z" fill="#0DB0DF"/>
<path d="M30.9478 23.585C30.7554 23.9841 30.5538 24.3783 30.3438 24.7683L31.5292 25.3962C31.7493 24.9887 31.9594 24.5762 32.161 24.1588L30.9478 23.585Z" fill="#0DB0DF"/>
<path d="M31.9982 21.1436C31.8419 21.5544 31.6756 21.9668 31.5 22.3752L32.7376 22.8966C32.9207 22.47 33.0938 22.0417 33.2568 21.6117L31.9982 21.1436Z" fill="#0DB0DF"/>
<path d="M34.9494 13.4717L33.6059 13.4825L33.6068 13.6047C33.6068 13.9756 33.5891 14.3698 33.5547 14.7756L34.8939 14.8871C34.9317 14.4446 34.951 14.013 34.951 13.6047L34.9494 13.4717Z" fill="#0DB0DF"/>
<path d="M34.6078 10.6133L33.2988 10.916C33.3971 11.3318 33.4719 11.7526 33.5223 12.1767L34.8573 12.0195C34.801 11.5472 34.717 11.0773 34.6078 10.6133Z" fill="#0DB0DF"/>
<path d="M33.6418 7.92432L32.4336 8.50644C32.6226 8.89064 32.7898 9.28482 32.9352 9.68731L34.2013 9.24157C34.0392 8.79251 33.8526 8.35259 33.6418 7.92432Z" fill="#0DB0DF"/>
<path d="M32.1055 5.51514L31.0527 6.34258C31.3216 6.67771 31.5728 7.02699 31.8047 7.38873L32.9406 6.67771C32.6827 6.27605 32.4037 5.88769 32.1055 5.51514Z" fill="#0DB0DF"/>
<path d="M30.0894 3.48486L29.2324 4.51023C29.5668 4.78382 29.8861 5.07405 30.1902 5.38008L31.1488 4.44703C30.8128 4.10856 30.4591 3.78757 30.0894 3.48486Z" fill="#0DB0DF"/>
<path d="M27.7116 1.89941L27.0723 3.07031C27.4562 3.27571 27.8318 3.50025 28.1888 3.73808L28.9391 2.63372C28.5459 2.37259 28.1334 2.12561 27.7116 1.89941Z" fill="#0DB0DF"/>
<path d="M25.0766 0.795898L24.6699 2.06409C25.0883 2.19548 25.5008 2.346 25.8949 2.51149L26.4208 1.28737C25.9873 1.10442 25.5345 0.939765 25.0766 0.795898Z" fill="#0DB0DF"/>
<path d="M22.2894 0.18457L22.1172 1.50432C22.5507 1.55921 22.9842 1.63405 23.4068 1.72719L23.6975 0.427398C23.2363 0.327606 22.7624 0.246109 22.2894 0.18457Z" fill="#0DB0DF"/>
<path d="M2.68801 35.9253H1.34375V37.2559H2.68801V35.9253Z" fill="#0DB0DF"/>
<path d="M2.68801 38.5864H1.34375V39.917H2.68801V38.5864Z" fill="#0DB0DF"/>
<path d="M4.03372 37.2559H2.68945V38.5864H4.03372V37.2559Z" fill="#0DB0DF"/>
<path d="M1.34426 37.2559H0V38.5864H1.34426V37.2559Z" fill="#0DB0DF"/>
<path d="M39.6548 0H38.3105V1.33056H39.6548V0Z" fill="#0DB0DF"/>
<path d="M39.6548 2.66113H38.3105V3.99169H39.6548V2.66113Z" fill="#0DB0DF"/>
<path d="M41.0005 1.33057H39.6562V2.66113H41.0005V1.33057Z" fill="#0DB0DF"/>
<path d="M38.3111 1.33057H36.9668V2.66113H38.3111V1.33057Z" fill="#0DB0DF"/>
</svg>
