<svg width="44" height="44" viewBox="0 0 44 44" fill="none" xmlns="http://www.w3.org/2000/svg">
<g clip-path="url(#clip0)">
<path d="M25.4524 8.92292C26.5726 7.90175 27.2454 6.3975 27.1198 4.73925C26.9255 2.17075 24.8153 0.124751 22.2423 0.00558431C19.3025 -0.130082 16.8678 2.22392 16.8678 5.13342C16.8678 6.63492 17.5196 7.98333 18.5499 8.92292C15.5075 9.50958 13.2012 12.189 13.2012 15.4001V18.3334C13.2012 18.7386 13.5293 19.0668 13.9345 19.0668H30.0678C30.473 19.0668 30.8012 18.7386 30.8012 18.3334V15.4001C30.8012 12.189 28.4948 9.50958 25.4524 8.92292ZM18.3519 5.1105C18.3519 3.08833 19.9964 1.44383 22.0186 1.44383C24.0408 1.44383 25.6853 3.08833 25.6853 5.1105C25.6853 7.13267 24.0408 8.77717 22.0186 8.77717C19.9964 8.77717 18.3519 7.13267 18.3519 5.1105ZM29.3345 17.6001H14.6678V15.4001C14.6678 12.5648 16.9659 10.2668 19.8012 10.2668H24.2012C27.0364 10.2668 29.3345 12.5648 29.3345 15.4001V17.6001Z" fill="#0DB0DF"/>
<path d="M12.2512 33.8565C13.3714 32.8353 14.0442 31.3311 13.9187 29.6728C13.7243 27.1043 11.6142 25.0583 9.04108 24.9392C6.10133 24.8035 3.66667 27.1575 3.66667 30.067C3.66667 31.5685 4.31842 32.9169 5.34875 33.8565C2.30633 34.4432 0 37.1226 0 40.3337V43.267C0 43.6722 0.328167 44.0003 0.733333 44.0003H16.8667C17.2718 44.0003 17.6 43.6722 17.6 43.267V40.3337C17.6 37.1226 15.2937 34.4432 12.2512 33.8565ZM5.15075 30.0441C5.15075 28.0219 6.79525 26.3774 8.81742 26.3774C10.8396 26.3774 12.4841 28.0219 12.4841 30.0441C12.4841 32.0663 10.8396 33.7108 8.81742 33.7108C6.79525 33.7108 5.15075 32.0663 5.15075 30.0441ZM16.1333 42.5337H1.46667V40.3337C1.46667 37.4984 3.76475 35.2003 6.6 35.2003H11C13.8352 35.2003 16.1333 37.4984 16.1333 40.3337V42.5337Z" fill="#52555A"/>
<path d="M38.6516 33.8565C39.7718 32.8353 40.4446 31.3311 40.3191 29.6728C40.1247 27.1043 38.0146 25.0583 35.4415 24.9392C32.5017 24.8035 30.0671 27.1575 30.0671 30.067C30.0671 31.5685 30.7188 32.9169 31.7491 33.8565C28.7067 34.4432 26.4004 37.1226 26.4004 40.3337V43.267C26.4004 43.6722 26.7286 44.0003 27.1337 44.0003H43.2671C43.6722 44.0003 44.0004 43.6722 44.0004 43.267V40.3337C44.0004 37.1226 41.6941 34.4432 38.6516 33.8565ZM31.5511 30.0441C31.5511 28.0219 33.1956 26.3774 35.2178 26.3774C37.24 26.3774 38.8845 28.0219 38.8845 30.0441C38.8845 32.0663 37.24 33.7108 35.2178 33.7108C33.1956 33.7108 31.5511 32.0663 31.5511 30.0441ZM42.5337 42.5337H27.8671V40.3337C27.8671 37.4984 30.1651 35.2003 33.0004 35.2003H37.4004C40.2356 35.2003 42.5337 37.4984 42.5337 40.3337V42.5337Z" fill="#52555A"/>
<path d="M4.43163 23.4209L2.9668 23.4777C2.98696 23.9828 3.0273 24.4952 3.08688 24.9976L4.54346 24.8234C4.48755 24.3596 4.44996 23.8875 4.43163 23.4209Z" fill="#52555A"/>
<path d="M3.08596 20.4355C3.02638 20.9361 2.98513 21.4466 2.9668 21.9554L4.43163 22.0122C4.44996 21.5429 4.48755 21.0717 4.54255 20.6088L3.08596 20.4355Z" fill="#52555A"/>
<path d="M10.4603 7.54443C10.0588 7.8506 9.66374 8.17693 9.28516 8.51793L10.266 9.60877C10.6152 9.29527 10.9792 8.99277 11.3495 8.71135L10.4603 7.54443Z" fill="#52555A"/>
<path d="M4.76002 14.5928C4.5446 15.0511 4.34477 15.5232 4.16602 15.9989L5.53919 16.5141C5.70419 16.0759 5.88844 15.6396 6.08735 15.2179L4.76002 14.5928Z" fill="#52555A"/>
<path d="M3.68734 17.4482C3.54801 17.9332 3.42701 18.4327 3.32617 18.9296L4.76442 19.2192C4.85701 18.7609 4.96792 18.3007 5.09717 17.8525L3.68734 17.4482Z" fill="#52555A"/>
<path d="M8.19113 9.58203C7.84005 9.95145 7.50271 10.3364 7.18555 10.7279L8.32588 11.65C8.61738 11.2889 8.92996 10.9332 9.25446 10.5922L8.19113 9.58203Z" fill="#52555A"/>
<path d="M13.0205 5.89648C12.5768 6.13298 12.135 6.39332 11.7051 6.67015L12.4998 7.90399C12.8958 7.64824 13.3037 7.40807 13.7117 7.19082L13.0205 5.89648Z" fill="#52555A"/>
<path d="M6.27609 11.9487C5.98918 12.3676 5.71693 12.8012 5.46484 13.2412L6.73718 13.97C6.96909 13.5648 7.22118 13.1642 7.48609 12.7783L6.27609 11.9487Z" fill="#52555A"/>
<path d="M18.5416 39.9678L18.252 41.406C18.7451 41.5059 19.253 41.5857 19.7599 41.6453L19.9304 40.1887C19.4638 40.1337 18.9963 40.0594 18.5416 39.9678Z" fill="#52555A"/>
<path d="M25.539 39.9585C25.0834 40.0511 24.6169 40.1262 24.1484 40.184L24.3254 41.6406C24.8314 41.5792 25.3374 41.4967 25.8305 41.3967L25.539 39.9585Z" fill="#52555A"/>
<path d="M22.745 40.2959C22.2766 40.3142 21.8027 40.3161 21.337 40.2977L21.2793 41.7626C21.5231 41.7727 21.7697 41.7772 22.019 41.7772C22.2812 41.7754 22.5434 41.7708 22.8037 41.7607L22.745 40.2959Z" fill="#52555A"/>
<path d="M34.7553 8.52344L33.7754 9.61427C34.1246 9.92777 34.4629 10.2578 34.7837 10.5951L35.8489 9.58677C35.5006 9.22102 35.133 8.8626 34.7553 8.52344Z" fill="#52555A"/>
<path d="M36.8513 10.7319L35.7109 11.6541C36.0034 12.0153 36.2866 12.3966 36.5524 12.7834L37.7615 11.9539C37.4737 11.5359 37.1675 11.1243 36.8513 10.7319Z" fill="#52555A"/>
<path d="M41.0683 21.957L39.6035 22.0139C39.6127 22.2449 39.6173 22.4777 39.6173 22.7105C39.6173 22.9489 39.6127 23.1854 39.6035 23.4228L41.0683 23.4796C41.0784 23.2248 41.0839 22.9681 41.0839 22.7087C41.0839 22.4575 41.0793 22.2064 41.0683 21.957Z" fill="#52555A"/>
<path d="M38.574 13.2451L37.3008 13.9748C37.5336 14.38 37.7518 14.8007 37.9516 15.2233L39.278 14.5972C39.0626 14.1389 38.8252 13.6842 38.574 13.2451Z" fill="#52555A"/>
<path d="M39.8693 16.0024L38.4961 16.5185C38.6602 16.9558 38.8087 17.4049 38.9379 17.8541L40.3478 17.4499C40.2093 16.9631 40.048 16.4764 39.8693 16.0024Z" fill="#52555A"/>
<path d="M40.7088 18.9321L39.2715 19.2209C39.3641 19.6801 39.4383 20.1476 39.4933 20.6115L40.9499 20.4382C40.8894 19.9368 40.8087 19.4299 40.7088 18.9321Z" fill="#52555A"/>
<path d="M32.3329 6.67236L31.5391 7.9062C31.9305 8.15828 32.3182 8.43053 32.6913 8.71561L33.5814 7.5487C33.1771 7.2407 32.7573 6.94645 32.3329 6.67236Z" fill="#52555A"/>
<path d="M29.6462 5.23242L29.0586 6.57625C29.4858 6.76325 29.9111 6.97042 30.3245 7.19134L31.0184 5.89884C30.572 5.65867 30.11 5.43409 29.6462 5.23242Z" fill="#52555A"/>
</g>
<defs>
<clipPath id="clip0">
<rect width="44" height="44" fill="white"/>
</clipPath>
</defs>
</svg>
