<svg width="29" height="34" viewBox="0 0 29 34" fill="none" xmlns="http://www.w3.org/2000/svg">
<g clip-path="url(#clip0)">
<path d="M6.46797 9.5702C5.65597 9.42784 4.90487 9.2621 4.23279 9.07653C3.92539 8.988 3.60277 9.1594 3.51214 9.45971C3.42152 9.76002 3.59697 10.0752 3.90437 10.1637C3.90872 10.1651 3.91379 10.1666 3.91814 10.1673C4.62647 10.362 5.41454 10.537 6.26279 10.6857C6.29687 10.6914 6.33167 10.6942 6.36574 10.6942C6.68619 10.6935 6.94502 10.4393 6.94429 10.1262C6.94357 9.8528 6.74347 9.61907 6.46797 9.5702Z" fill="#0DB0DF"/>
<path d="M8.73708 9.89381C8.42025 9.84919 8.1259 10.0638 8.08023 10.3733C8.03455 10.6828 8.25423 10.9704 8.57105 11.015C8.58193 11.0164 8.59353 11.0178 8.6044 11.0186C10.5626 11.2332 12.531 11.3387 14.5016 11.3344C16.4663 11.3387 18.4303 11.2339 20.3835 11.0207C20.7025 10.9945 20.9396 10.7204 20.9135 10.4087C20.8866 10.0971 20.6061 9.86548 20.2871 9.89098C20.2755 9.89168 20.2631 9.8931 20.2515 9.89523C18.3426 10.1035 16.4228 10.2054 14.5023 10.2012C12.5752 10.2062 10.6504 10.1035 8.73708 9.89381Z" fill="#0DB0DF"/>
<path d="M8.73708 18.9597C8.42025 18.9151 8.1259 19.1297 8.08023 19.4392C8.03455 19.7487 8.25423 20.0363 8.57105 20.0809C8.58193 20.0823 8.59353 20.0838 8.6044 20.0845C10.5626 20.2991 12.531 20.4046 14.5016 20.4004C16.4663 20.4046 18.4303 20.2998 20.3835 20.0866C20.7025 20.0604 20.9396 19.7863 20.9135 19.4746C20.8874 19.163 20.6061 18.9314 20.2871 18.9569C20.2755 18.9576 20.2631 18.959 20.2515 18.9611C18.3426 19.1694 16.4228 19.2714 14.5023 19.2671C12.5752 19.2721 10.6504 19.1694 8.73708 18.9597Z" fill="#0DB0DF"/>
<path d="M20.2501 28.0278C18.3412 28.236 16.4214 28.338 14.5008 28.3338C12.5752 28.338 10.6504 28.2353 8.73708 28.0264C8.42025 27.9818 8.1259 28.1964 8.08023 28.5059C8.03455 28.8154 8.25423 29.103 8.57105 29.1476C8.58193 29.149 8.59353 29.1504 8.6044 29.1511C10.5626 29.3657 12.531 29.4713 14.5016 29.467C16.4663 29.4713 18.4303 29.3664 20.3835 29.1532C20.7025 29.127 20.9396 28.8529 20.9135 28.5413C20.8874 28.2297 20.6061 27.998 20.2871 28.0235C20.274 28.025 20.2624 28.0257 20.2501 28.0278Z" fill="#0DB0DF"/>
<path d="M6.46797 18.6361C5.65597 18.4938 4.90487 18.328 4.23279 18.1424C3.92539 18.0539 3.60277 18.2253 3.51214 18.5256C3.42152 18.8259 3.59697 19.1411 3.90437 19.2297C3.90872 19.2311 3.91379 19.2325 3.91814 19.2332C4.62647 19.428 5.41454 19.6029 6.26279 19.7517C6.29687 19.7573 6.33167 19.7601 6.36574 19.7601C6.68619 19.7594 6.94502 19.5052 6.94429 19.1921C6.94357 18.9187 6.74347 18.685 6.46797 18.6361Z" fill="#0DB0DF"/>
<path d="M6.46797 27.702C5.65597 27.5597 4.90487 27.3939 4.23279 27.2084C3.92539 27.1198 3.60277 27.2912 3.51214 27.5915C3.42152 27.8919 3.59697 28.207 3.90437 28.2956C3.90872 28.297 3.91379 28.2984 3.91814 28.2991C4.62647 28.4939 5.41454 28.6688 6.26279 28.8176C6.29687 28.8232 6.33167 28.8261 6.36574 28.8261C6.68619 28.8254 6.94502 28.5711 6.94429 28.258C6.94357 27.9846 6.74347 27.7509 6.46797 27.702Z" fill="#0DB0DF"/>
<path d="M24.4383 0.675369C21.149 0.197284 17.8256 -0.0272389 14.5 0.00321691C11.1744 -0.0272389 7.85102 0.197284 4.5617 0.675369C0.518375 1.33265 0 2.17549 0 2.83631V30.034C0 32.6405 7.29495 34.0004 14.5 34.0004C21.705 34.0004 29 32.6405 29 30.034V2.83631C29 2.17549 28.4816 1.33265 24.4383 0.675369ZM27.84 20.9681C27.84 22.1233 22.6432 23.8012 14.5 23.8012C6.3568 23.8012 1.16 22.1233 1.16 20.9681V14.0639C3.78087 15.598 10.266 15.8686 14.5 15.8686C18.734 15.8686 25.2191 15.598 27.84 14.0639V20.9681ZM27.84 12.4688C27.84 13.4101 23.701 14.7353 14.5 14.7353C5.29902 14.7353 1.16 13.4101 1.16 12.4688V4.99797C3.78087 6.53209 10.266 6.80265 14.5 6.80265C18.734 6.80265 25.2191 6.53209 27.84 4.99797V12.4688ZM1.16 2.87952C1.58992 2.27819 5.98632 1.13646 14.5 1.13646C23.0137 1.13646 27.4101 2.27819 27.84 2.87952V3.40293C27.84 4.34423 23.701 5.66941 14.5 5.66941C5.29902 5.66941 1.16 4.34423 1.16 3.40293V2.87952ZM14.5 32.8671C6.3568 32.8671 1.16 31.1892 1.16 30.034V22.6248C3.49667 24.1462 9.02262 24.9345 14.5 24.9345C19.9774 24.9345 25.5033 24.1462 27.84 22.6248V30.034C27.84 31.1892 22.6432 32.8671 14.5 32.8671Z" fill="white"/>
</g>
<defs>
<clipPath id="clip0">
<rect width="29" height="34" fill="white"/>
</clipPath>
</defs>
</svg>
