<svg width="45" height="45" viewBox="0 0 45 45" fill="none" xmlns="http://www.w3.org/2000/svg">
<path d="M30.1386 36.9848H14.8613C11.0841 36.9848 8.00391 33.9046 8.00391 30.1274V14.8614C8.00391 11.0842 11.0841 8.00403 14.8613 8.00403H30.1386C33.9157 8.00403 36.9959 11.0842 36.9959 14.8614V30.1387C36.9847 33.9158 33.9157 36.9848 30.1386 36.9848ZM14.8613 9.76895C12.0509 9.76895 9.76883 12.051 9.76883 14.8614V30.1387C9.76883 32.9491 12.0509 35.2311 14.8613 35.2311H30.1386C32.9489 35.2311 35.231 32.9491 35.231 30.1387V14.8614C35.231 12.051 32.9489 9.76895 30.1386 9.76895H14.8613Z" fill="#52555A"/>
<path d="M22.4945 9.18437C22.0111 9.18437 21.6177 8.79092 21.6177 8.30753V3.58607C21.6177 3.10268 22.0111 2.70923 22.4945 2.70923C22.9779 2.70923 23.3714 3.10268 23.3714 3.58607V8.30753C23.3826 8.79092 22.9891 9.18437 22.4945 9.18437Z" fill="#52555A"/>
<path d="M27.7892 9.57782C27.3058 9.57782 26.9124 9.18436 26.9124 8.70097V0.876842C26.9124 0.393455 27.3058 0 27.7892 0C28.2726 0 28.666 0.393455 28.666 0.876842V8.68973C28.6773 9.18436 28.2838 9.57782 27.7892 9.57782Z" fill="#52555A"/>
<path d="M33.0841 10.0837C32.6007 10.0837 32.2073 9.69024 32.2073 9.20686V3.58607C32.2073 3.10268 32.6007 2.70923 33.0841 2.70923C33.5675 2.70923 33.961 3.10268 33.961 3.58607V9.20686C33.9722 9.69024 33.5675 10.0837 33.0841 10.0837Z" fill="#52555A"/>
<path d="M11.9161 10.0837C11.4328 10.0837 11.0393 9.69024 11.0393 9.20686V3.58607C11.0393 3.10268 11.4328 2.70923 11.9161 2.70923C12.3995 2.70923 12.793 3.10268 12.793 3.58607V9.20686C12.793 9.69024 12.3995 10.0837 11.9161 10.0837Z" fill="#52555A"/>
<path d="M17.1996 9.57782C16.7162 9.57782 16.3228 9.18436 16.3228 8.70097V0.876842C16.3228 0.393455 16.7162 0 17.1996 0C17.683 0 18.0764 0.393455 18.0764 0.876842V8.68973C18.0877 9.18436 17.6942 9.57782 17.1996 9.57782Z" fill="#52555A"/>
<path d="M22.4945 42.2907C22.0111 42.2907 21.6177 41.8972 21.6177 41.4139V36.6924C21.6177 36.209 22.0111 35.8156 22.4945 35.8156C22.9779 35.8156 23.3714 36.209 23.3714 36.6924V41.4139C23.3826 41.8972 22.9891 42.2907 22.4945 42.2907Z" fill="#52555A"/>
<path d="M27.7892 44.9999C27.3058 44.9999 26.9124 44.6065 26.9124 44.1231V36.3102C26.9124 35.8268 27.3058 35.4333 27.7892 35.4333C28.2726 35.4333 28.666 35.8268 28.666 36.3102V44.1231C28.6773 44.6065 28.2838 44.9999 27.7892 44.9999Z" fill="#52555A"/>
<path d="M33.0841 42.2907C32.6007 42.2907 32.2073 41.8973 32.2073 41.4139V35.7931C32.2073 35.3097 32.6007 34.9163 33.0841 34.9163C33.5675 34.9163 33.961 35.3097 33.961 35.7931V41.4139C33.9722 41.8973 33.5675 42.2907 33.0841 42.2907Z" fill="#52555A"/>
<path d="M11.9161 42.2907C11.4328 42.2907 11.0393 41.8973 11.0393 41.4139V35.7931C11.0393 35.3097 11.4328 34.9163 11.9161 34.9163C12.3995 34.9163 12.793 35.3097 12.793 35.7931V41.4139C12.793 41.8973 12.3995 42.2907 11.9161 42.2907Z" fill="#52555A"/>
<path d="M17.1996 44.9999C16.7162 44.9999 16.3228 44.6065 16.3228 44.1231V36.3102C16.3228 35.8268 16.7162 35.4333 17.1996 35.4333C17.683 35.4333 18.0764 35.8268 18.0764 36.3102V44.1231C18.0877 44.6065 17.6942 44.9999 17.1996 44.9999Z" fill="#52555A"/>
<path d="M41.414 23.3825H36.6925C36.2091 23.3825 35.8157 22.989 35.8157 22.5056C35.8157 22.0222 36.2091 21.6288 36.6925 21.6288H41.414C41.8974 21.6288 42.2908 22.0222 42.2908 22.5056C42.2908 22.989 41.8974 23.3825 41.414 23.3825Z" fill="#52555A"/>
<path d="M44.1118 28.6771H36.3102C35.8268 28.6771 35.4333 28.2837 35.4333 27.8003C35.4333 27.3169 35.8268 26.9235 36.3102 26.9235H44.1231C44.6065 26.9235 44.9999 27.3169 44.9999 27.8003C44.9999 28.2837 44.6065 28.6771 44.1118 28.6771Z" fill="#52555A"/>
<path d="M41.4139 33.972H35.7931C35.3097 33.972 34.9163 33.5785 34.9163 33.0951C34.9163 32.6117 35.3097 32.2183 35.7931 32.2183H41.4139C41.8973 32.2183 42.2907 32.6117 42.2907 33.0951C42.2907 33.5785 41.8973 33.972 41.4139 33.972Z" fill="#52555A"/>
<path d="M41.4139 12.7929H35.7931C35.3097 12.7929 34.9163 12.3994 34.9163 11.916C34.9163 11.4326 35.3097 11.0392 35.7931 11.0392H41.4139C41.8973 11.0392 42.2907 11.4326 42.2907 11.916C42.2907 12.3994 41.8973 12.7929 41.4139 12.7929Z" fill="#52555A"/>
<path d="M44.1118 18.0877H36.3102C35.8268 18.0877 35.4333 17.6942 35.4333 17.2108C35.4333 16.7274 35.8268 16.334 36.3102 16.334H44.1231C44.6065 16.334 44.9999 16.7274 44.9999 17.2108C44.9999 17.6942 44.6065 18.0877 44.1118 18.0877Z" fill="#52555A"/>
<path d="M8.30753 23.3825H3.58607C3.10268 23.3825 2.70923 22.989 2.70923 22.5056C2.70923 22.0222 3.10268 21.6288 3.58607 21.6288H8.30753C8.79092 21.6288 9.18437 22.0222 9.18437 22.5056C9.18437 22.989 8.79092 23.3825 8.30753 23.3825Z" fill="#52555A"/>
<path d="M8.68973 28.6772H0.876842C0.393455 28.6772 0 28.2837 0 27.7891C0 27.2944 0.393455 26.9122 0.876842 26.9122H8.68973C9.17312 26.9122 9.56658 27.3057 9.56658 27.7891C9.56658 28.2725 9.18436 28.6772 8.68973 28.6772Z" fill="#52555A"/>
<path d="M9.20686 33.972H3.58607C3.10268 33.972 2.70923 33.5785 2.70923 33.0951C2.70923 32.6117 3.10268 32.2183 3.58607 32.2183H9.20686C9.69024 32.2183 10.0837 32.6117 10.0837 33.0951C10.0837 33.5785 9.69024 33.972 9.20686 33.972Z" fill="#52555A"/>
<path d="M9.20686 12.7929H3.58607C3.10268 12.7929 2.70923 12.3994 2.70923 11.916C2.70923 11.4326 3.10268 11.0392 3.58607 11.0392H9.20686C9.69024 11.0392 10.0837 11.4326 10.0837 11.916C10.0837 12.3994 9.69024 12.7929 9.20686 12.7929Z" fill="#52555A"/>
<path d="M8.68973 18.0877H0.876842C0.393455 18.0877 0 17.6942 0 17.2108C0 16.7274 0.393455 16.334 0.876842 16.334H8.68973C9.17312 16.334 9.56658 16.7274 9.56658 17.2108C9.57782 17.6942 9.18436 18.0877 8.68973 18.0877Z" fill="#52555A"/>
<path d="M12.0397 24.6527C11.5563 24.6527 11.1628 24.2592 11.1628 23.7758V21.2352C11.1628 20.7519 11.5563 20.3584 12.0397 20.3584C12.5231 20.3584 12.9165 20.7519 12.9165 21.2352V23.7758C12.9278 24.2592 12.5343 24.6527 12.0397 24.6527Z" fill="#52555A"/>
<path d="M12.0397 17.2333C11.5563 17.2333 11.1628 16.8398 11.1628 16.3564V14.3892C11.1628 13.9058 11.5563 13.5123 12.0397 13.5123C12.5231 13.5123 12.9165 13.9058 12.9165 14.3892V16.3564C12.9278 16.8398 12.5343 17.2333 12.0397 17.2333Z" fill="#52555A"/>
<path d="M12.0397 31.4876C11.5563 31.4876 11.1628 31.0941 11.1628 30.6107V28.6434C11.1628 28.1601 11.5563 27.7666 12.0397 27.7666C12.5231 27.7666 12.9165 28.1601 12.9165 28.6434V30.6107C12.9278 31.0941 12.5343 31.4876 12.0397 31.4876Z" fill="#52555A"/>
<path d="M32.9491 24.6527C32.4657 24.6527 32.0723 24.2592 32.0723 23.7758V21.2352C32.0723 20.7519 32.4657 20.3584 32.9491 20.3584C33.4325 20.3584 33.826 20.7519 33.826 21.2352V23.7758C33.8372 24.2592 33.4437 24.6527 32.9491 24.6527Z" fill="#52555A"/>
<path d="M32.9491 17.2333C32.4657 17.2333 32.0723 16.8398 32.0723 16.3564V14.3892C32.0723 13.9058 32.4657 13.5123 32.9491 13.5123C33.4325 13.5123 33.826 13.9058 33.826 14.3892V16.3564C33.8372 16.8398 33.4437 17.2333 32.9491 17.2333Z" fill="#52555A"/>
<path d="M32.9491 31.4876C32.4657 31.4876 32.0723 31.0941 32.0723 30.6107V28.6434C32.0723 28.1601 32.4657 27.7666 32.9491 27.7666C33.4325 27.7666 33.826 28.1601 33.826 28.6434V30.6107C33.8372 31.0941 33.4437 31.4876 32.9491 31.4876Z" fill="#52555A"/>
<path d="M22.4943 31.4989C22.3594 31.4989 22.2133 31.4651 22.0896 31.3977L18.2563 29.3854C16.3789 28.3962 15.2548 26.4964 15.3335 24.4279L15.6145 16.7612C15.6257 16.3565 15.918 16.0192 16.3115 15.9293L22.3145 14.6253C22.4381 14.6028 22.5618 14.6028 22.6855 14.6253L28.6884 15.9293C29.0819 16.0192 29.3629 16.3565 29.3854 16.7612L29.6665 24.4279C29.7452 26.4964 28.621 28.3962 26.7549 29.3854L22.9103 31.3977C22.7754 31.4651 22.6405 31.4989 22.4943 31.4989ZM17.3569 17.5143L17.0984 24.4954C17.0422 25.8893 17.8066 27.1596 19.0769 27.8341L22.5056 29.6215L25.9343 27.8229C27.2046 27.1596 27.9577 25.8781 27.9015 24.4954L27.643 17.5143L22.4943 16.3902L17.3569 17.5143Z" fill="#0DB0DF"/>
</svg>
