<svg width="36" height="32" viewBox="0 0 36 32" fill="none" xmlns="http://www.w3.org/2000/svg">
<path d="M33.0966 9.94454C33.5608 6.68914 30.6581 0 23.806 0C20.8448 0 18.1157 1.42096 16.3741 3.78826C11.2064 0.118656 5.45827 4.02557 5.22548 8.99748C2.20644 9.53034 0 12.1939 0 15.3903C0 19.001 2.90336 22.1384 6.96779 21.9019V20.7182C3.94875 21.1921 1.04538 18.2323 1.16106 15.3911C1.39313 10.0639 6.38654 10.0042 6.38654 10.0042C5.98024 4.38081 12.6574 1.24334 16.6062 5.56446C16.6062 5.56446 18.8126 1.18438 23.806 1.18438C29.4385 1.18438 32.5739 6.63018 31.877 10.5961C31.877 10.5961 34.8382 12.017 34.8382 15.3911C34.8382 18.3509 32.4576 20.8958 29.0315 20.7182V21.9019C31.8185 22.1981 35.9993 19.9488 35.9993 15.3903C36 13.1999 34.8968 11.1282 33.0966 9.94454Z" fill="white"/>
<path d="M28.4603 23.5862V19.2018L26.1939 18.4316C26.136 18.0763 26.0196 17.7801 25.8454 17.5428L26.8915 15.4099L23.811 12.2695L21.7767 13.3359C21.4861 13.2173 21.1954 13.0986 20.9634 12.9807L20.2079 10.6702H15.9071L15.1516 12.9807C14.861 13.0993 14.5704 13.218 14.3383 13.3359L12.2461 12.2695L9.16569 15.4099L10.1539 17.4838C10.0376 17.7801 9.92116 18.0763 9.80549 18.3129L7.53906 19.0831V23.4675L9.80549 24.2377C9.92188 24.534 10.0383 24.8303 10.1539 25.0669L9.10785 27.1997L12.1883 30.3401L14.2227 29.3326C14.5133 29.4513 14.8039 29.57 15.036 29.6879L15.7914 31.9984H20.0922L20.8477 29.6879C21.1383 29.5692 21.4289 29.4506 21.661 29.3326L23.7532 30.3991L26.8337 27.2587L25.8454 25.1848C25.9618 24.8885 26.0782 24.5922 26.1939 24.3556L28.4603 23.5862ZM25.5176 27.036L23.6597 28.9286L21.7438 27.9823L20.0022 28.751L19.3053 30.7623H16.6347L15.9964 28.751L14.2548 27.9823L12.339 28.9286L10.481 27.036L11.41 25.0843L10.6552 23.3096L8.68084 22.6588V19.9384L10.6552 19.2876L11.41 17.5129L10.481 15.5613L12.339 13.6686L14.2548 14.6149L15.9964 13.8462L16.6347 11.8349H19.3053L20.0022 13.8462L21.7438 14.6149L23.6597 13.6686L25.5176 15.5613L24.5886 17.5129L25.3434 19.2876L27.3178 19.9384V22.6588L25.3434 23.3096L24.5886 25.0843L25.5176 27.036Z" fill="#0DB0DF"/>
<path d="M17.9959 17.1628C15.733 17.1628 13.9336 18.9965 13.9336 21.3042C13.9336 23.6118 15.7323 25.4455 17.9959 25.4455C20.2594 25.4455 22.0582 23.6118 22.0582 21.3042C22.0582 18.9965 20.2587 17.1628 17.9959 17.1628ZM17.9959 24.2618C16.3707 24.2618 15.0947 22.9602 15.0947 21.3034C15.0947 19.6466 16.3714 18.345 17.9959 18.345C19.6204 18.345 20.8971 19.6466 20.8971 21.3034C20.8971 22.9602 19.6204 24.2618 17.9959 24.2618Z" fill="#0DB0DF"/>
<path d="M7.5293 10.0886H8.68964C8.68964 7.80141 10.5084 5.94732 12.7519 5.94732V4.76367C9.84999 4.76367 7.5293 7.13024 7.5293 10.0886Z" fill="white"/>
</svg>
