<svg width="39" height="35" viewBox="0 0 39 35" fill="none" xmlns="http://www.w3.org/2000/svg">
<path d="M1.70853 0.0144043H0.474551C0.21252 0.0144043 0 0.225553 0 0.485138V1.693C0 1.86252 0.0860742 2.02372 0.233086 2.11076C0.680977 2.3764 1.14258 2.06232 1.14258 1.64154V1.14961H1.76109C1.93172 1.14961 2.09396 1.06409 2.18156 0.918031C2.44816 0.473029 2.13281 0.0144043 1.70853 0.0144043Z" fill="#0DB0DF"/>
<path d="M38.4941 0.0144043H37.2586C37.0629 0.0144043 36.8801 0.120357 36.7917 0.293666C36.5738 0.723532 36.8823 1.14961 37.2914 1.14961H37.8573V1.67408C37.8573 1.86858 37.964 2.05021 38.1384 2.138C38.5711 2.35445 38.9999 2.04794 38.9999 1.64154V0.516167C38.9999 0.239176 38.7737 0.0144043 38.4941 0.0144043Z" fill="#0DB0DF"/>
<path d="M1.74129 33.2381H1.14258V32.7137C1.14258 32.5192 1.03594 32.3375 0.861504 32.2497C0.428848 32.0333 0 32.3398 0 32.7462V33.8708C0 34.1478 0.22623 34.3733 0.505781 34.3733H1.7093C2.11834 34.3733 2.42607 33.9472 2.20898 33.5174C2.11986 33.3433 1.93629 33.2381 1.74129 33.2381Z" fill="#0DB0DF"/>
<path d="M37.8575 32.7417V33.2374H37.2877C37.0608 33.2374 36.8482 33.3676 36.7652 33.5773C36.6037 33.9859 36.9023 34.3727 37.2916 34.3727H38.4539C38.7556 34.3727 39.0001 34.1297 39.0001 33.83V32.7455C39.0001 32.3588 38.6101 32.0621 38.1995 32.2226C37.9885 32.3051 37.8575 32.517 37.8575 32.7417Z" fill="#0DB0DF"/>
<path d="M18.9668 8.64058V10.8656C18.9668 11.157 19.177 11.4173 19.468 11.4521C19.8146 11.493 20.1094 11.2251 20.1094 10.8883V8.61788C20.1094 8.2811 19.8146 8.01319 19.468 8.05406C19.177 8.08887 18.9668 8.34921 18.9668 8.64058Z" fill="#0DB0DF"/>
<path d="M34.658 24.2171V17.1811C34.658 16.8897 34.4478 16.6293 34.1568 16.5945C33.8102 16.5537 33.5155 16.8216 33.5155 17.1583V24.1959C33.1194 24.2958 32.7636 24.4963 32.4772 24.7688L30.8205 23.9598C30.4975 23.8023 30.0984 23.9726 30.0055 24.3412C29.9392 24.6038 30.0831 24.8755 30.3277 24.9943L31.8625 25.7436C31.7909 25.9668 31.7521 26.2037 31.7521 26.4504C31.7521 26.5617 31.7605 26.6706 31.7757 26.7781L21.2891 31.266C20.9753 30.8739 20.5373 30.5848 20.0338 30.4577V20.007C20.0338 20.007 20.2334 20.0403 20.2973 20.0403C20.5091 20.0403 20.7125 19.923 20.8123 19.7216C20.9517 19.4394 20.8351 19.0988 20.551 18.9595L20.1107 18.7423V17.231C21.1177 16.9767 21.865 16.0685 21.865 14.9901C21.865 14.8614 21.8535 14.7351 21.8337 14.6117L32.2556 10.0746C32.5686 10.4735 33.0097 10.7679 33.5177 10.8958V13.0391C33.5177 13.3304 33.728 13.5908 34.0189 13.6256C34.3655 13.6664 34.6603 13.3985 34.6603 13.0618V10.8935C35.7313 10.6233 36.5082 9.61299 36.4054 8.44524C36.3087 7.35166 35.4281 6.46393 34.329 6.35343C33.488 6.26867 32.7256 6.63345 32.254 7.2336L21.833 2.6973C21.8741 2.44907 21.8772 2.18797 21.8284 1.91779C21.6311 0.840102 20.6858 0.0295633 19.5836 0.00837272C18.2796 -0.0166019 17.2109 1.0293 17.2109 2.31966C17.2109 2.44831 17.2223 2.5747 17.2429 2.69806L6.81416 7.23814C6.34342 6.63572 5.58018 6.26943 4.73772 6.35343C3.63551 6.46317 2.75268 7.35393 2.65822 8.45054C2.55692 9.62132 3.34072 10.6324 4.4178 10.8973V24.2171C3.34301 24.4812 2.56149 25.49 2.6628 26.6585C2.75801 27.7597 3.64922 28.6512 4.75676 28.7519C5.60836 28.8298 6.3777 28.4469 6.84082 27.8255L9.54873 28.9842C9.62262 29.016 9.69879 29.0304 9.7742 29.0304C10.0202 29.0304 10.2533 28.8714 10.3264 28.6111C10.4034 28.3349 10.2465 28.0458 9.98139 27.9322L7.27348 26.7736C7.28795 26.6691 7.29633 26.5624 7.29633 26.4542C7.29633 26.212 7.25824 25.9789 7.18817 25.7594L8.72074 25.011C8.96373 24.8921 9.1077 24.622 9.04143 24.3609C8.94926 23.9961 8.55317 23.8281 8.23324 23.984L6.58032 24.7907C6.29848 24.5221 5.94885 24.323 5.55961 24.2216V10.9079C6.06006 10.7785 6.495 10.4856 6.80426 10.0905L17.1766 14.6064C17.156 14.729 17.1454 14.8546 17.1454 14.9825C17.1454 16.0549 17.8888 16.9586 18.8905 17.2113V18.7431L18.5149 18.9603C18.2308 19.0988 18.1143 19.4401 18.2537 19.7224C18.3534 19.9237 18.5568 20.041 18.7686 20.041C18.8326 20.041 18.9674 20.0077 18.9674 20.0077V30.441C18.4677 30.5674 18.032 30.855 17.7197 31.244L13.7329 29.5382C13.4426 29.4141 13.1052 29.5473 12.9803 29.8356C12.8554 30.1239 12.9894 30.4585 13.2796 30.5833L17.2482 32.2816C17.2253 32.4118 17.2124 32.545 17.2124 32.6812C17.2124 33.9557 18.2559 34.9925 19.5387 34.9925C20.8214 34.9925 21.865 33.9557 21.865 32.6812C21.865 32.545 21.852 32.4118 21.8292 32.2816L32.2182 27.8354C32.6425 28.4015 33.3212 28.7693 34.0852 28.7693C35.368 28.7693 36.4115 27.7324 36.4115 26.458C36.4123 25.3788 35.665 24.4706 34.658 24.2171ZM34.0845 7.47956C34.7357 7.47956 35.2666 8.0063 35.2666 8.65412C35.2666 9.30119 34.7365 9.82793 34.0845 9.82793C33.4324 9.82793 32.9023 9.30119 32.9023 8.65412C32.9023 8.00705 33.4332 7.47956 34.0845 7.47956ZM6.14766 26.4557C6.14766 27.1035 5.6175 27.6303 4.96623 27.6303C4.31496 27.6303 3.78481 27.1035 3.78481 26.4557C3.78481 25.8086 4.31496 25.2811 4.96623 25.2811C5.6175 25.2819 6.14766 25.8086 6.14766 26.4557ZM6.05778 9.10139C6.05473 9.10745 6.05168 9.11275 6.04864 9.11956C6.04635 9.1241 6.04559 9.12864 6.0433 9.13242C5.85821 9.54185 5.44535 9.82793 4.96547 9.82793C4.31344 9.82793 3.78405 9.30119 3.78405 8.65412C3.78405 8.00705 4.3142 7.48032 4.96547 7.48032C5.61674 7.48032 6.1469 8.00705 6.1469 8.65412C6.14766 8.81229 6.11567 8.96366 6.05778 9.10139ZM19.5318 1.14434C20.1839 1.14434 20.714 1.67107 20.714 2.3189C20.714 2.96597 20.1839 3.49346 19.5318 3.49346C18.8798 3.49346 18.3496 2.96673 18.3496 2.31966C18.3504 1.67107 18.8806 1.14434 19.5318 1.14434ZM17.7083 13.5567L7.3009 9.02571C7.32071 8.90462 7.33137 8.78051 7.33137 8.65412C7.33137 8.52773 7.32071 8.40362 7.3009 8.28253L17.7075 3.75153C18.0198 4.14886 18.4601 4.4425 18.9659 4.5704V6.32165C18.9659 6.61302 19.1761 6.87336 19.4671 6.90817C19.8137 6.94904 20.1084 6.68113 20.1084 6.34435V4.5704C20.615 4.4425 21.0545 4.14886 21.3668 3.75153L31.7612 8.27723C31.7407 8.39984 31.73 8.52622 31.73 8.65412C31.73 8.78202 31.7414 8.90841 31.7612 9.03101L21.3668 13.5567C21.005 13.0966 20.4718 12.7757 19.8632 12.6902C19.771 12.6258 19.6583 12.588 19.5372 12.588C19.416 12.588 19.3033 12.6258 19.2111 12.6902C18.6033 12.7757 18.0701 13.0958 17.7083 13.5567ZM18.3504 14.9901C18.3504 14.3423 18.8806 13.8163 19.5326 13.8163C20.1846 13.8163 20.7148 14.343 20.7148 14.9901C20.7148 15.6379 20.1846 16.1647 19.5326 16.1647C18.8806 16.1639 18.3504 15.6372 18.3504 14.9901ZM19.5318 33.8565C18.8798 33.8565 18.3496 33.3298 18.3496 32.6819C18.3496 32.0349 18.8798 31.5074 19.5318 31.5074C20.1839 31.5074 20.714 32.0341 20.714 32.6819C20.714 33.3298 20.1839 33.8565 19.5318 33.8565ZM34.2094 27.6333C33.68 27.6878 33.2131 27.3919 33.0104 26.9514C33.0043 26.9317 32.9975 26.9128 32.9891 26.8939C32.9853 26.8848 32.98 26.8757 32.9762 26.8667C32.9297 26.741 32.9038 26.6063 32.9038 26.4648C32.9038 26.2559 32.9594 26.0607 33.0561 25.8904C33.0935 25.851 33.1255 25.8049 33.1506 25.7541C33.1521 25.7504 33.1536 25.7473 33.1552 25.7436C33.3715 25.4681 33.7082 25.291 34.086 25.291C34.7822 25.291 35.3398 25.8926 35.2598 26.6003C35.1981 27.1421 34.7548 27.5781 34.2094 27.6333Z" fill="#52555A" stroke="#52555A" stroke-width="0.2" stroke-miterlimit="10"/>
<path d="M17.2256 20.2233C17.0862 19.9411 16.7427 19.8253 16.4586 19.9638L14.4019 20.968C14.1178 21.1065 14.0013 21.4479 14.1407 21.7301C14.2404 21.9315 14.4438 22.048 14.6556 22.048C14.7401 22.048 14.8262 22.0291 14.9077 21.9897L16.9643 20.9854C17.2477 20.8462 17.365 20.5056 17.2256 20.2233Z" fill="#0DB0DF"/>
<path d="M13.1131 22.2313C12.9737 21.949 12.6301 21.8332 12.346 21.9717L10.2894 22.976C10.0053 23.1145 9.88871 23.4558 10.0281 23.7381C10.1279 23.9394 10.3313 24.0559 10.543 24.0559C10.6276 24.0559 10.7136 24.037 10.7952 23.9977L12.8518 22.9934C13.1352 22.8541 13.2525 22.5136 13.1131 22.2313Z" fill="#0DB0DF"/>
<path d="M24.6628 20.9673L22.6062 19.963C22.3221 19.8245 21.9793 19.9411 21.8391 20.2226C21.6997 20.5049 21.8163 20.8454 22.1004 20.9847L24.1571 21.989C24.2386 22.0283 24.3246 22.0473 24.4092 22.0473C24.6209 22.0473 24.8243 21.93 24.9241 21.7294C25.0635 21.4471 24.9462 21.1058 24.6628 20.9673Z" fill="#0DB0DF"/>
<path d="M28.7754 22.9751L26.7187 21.9708C26.4346 21.8323 26.0918 21.9489 25.9517 22.2304C25.8123 22.5127 25.9288 22.8533 26.213 22.9925L28.2696 23.9968C28.3511 24.0361 28.4372 24.0551 28.5217 24.0551C28.7335 24.0551 28.9369 23.9378 29.0367 23.7372C29.176 23.4549 29.0595 23.1144 28.7754 22.9751Z" fill="#0DB0DF"/>
</svg>
