<svg width="37" height="39" viewBox="0 0 37 39" fill="none" xmlns="http://www.w3.org/2000/svg">
<g clip-path="url(#clip0)">
<path d="M5.3601 29.9779C3.75241 31.322 2.20083 31.417 1.00716 30.2954C-0.547325 28.8356 -0.245521 26.2601 1.6601 25.3373C2.30047 25.0278 2.43396 24.6687 2.42622 24.0278C2.39623 21.3327 2.40494 18.6365 2.41171 15.9404C2.41267 15.5072 2.36334 15.2006 1.89032 14.9939C0.682139 14.4677 0.0408058 13.4955 0.0495117 12.1356C0.0572503 10.919 0.639577 10.0052 1.68041 9.48195C2.85377 8.89347 3.99328 9.06359 5.00606 9.94285C5.04862 9.98043 5.10086 10.0061 5.22951 10.0912C6.48413 9.29107 7.77743 8.47214 9.06493 7.6453C11.0092 6.39712 12.9449 5.13609 14.8969 3.90077C15.3109 3.63868 15.5324 3.37658 15.5576 2.82074C15.6282 1.22739 16.9283 0.0256977 18.475 0.010862C20.016 -0.00298462 21.287 1.18486 21.4882 2.76139C21.5337 3.11349 21.6856 3.58626 21.9438 3.75538C25.1863 5.88282 28.4587 7.96476 31.7621 10.0843C31.914 9.97647 32.0736 9.86768 32.2284 9.75394C33.6997 8.67094 35.6643 9.07644 36.5823 10.652C37.4606 12.1593 36.8783 14.175 35.2764 14.9237C34.7502 15.1699 34.5751 15.433 34.5819 16.0126C34.6128 18.7661 34.6012 21.5196 34.5925 24.2731C34.5915 24.7024 34.6206 25.0129 35.1033 25.2186C36.3172 25.7349 36.9683 26.7091 36.9605 28.0661C36.9528 29.3133 36.3434 30.242 35.258 30.7622C34.0663 31.3329 32.9384 31.1262 31.9508 30.2143C31.8676 30.1372 31.7747 30.0719 31.6509 29.972C29.1446 31.3715 26.6344 32.773 24.1251 34.1744C23.7769 34.3693 23.4354 34.577 23.0804 34.757C22.1982 35.203 21.435 35.5957 21.2986 36.8646C21.1564 38.1761 19.6871 39.0564 18.356 38.9871C16.9825 38.9159 15.7307 37.8695 15.6001 36.4848C15.5305 35.753 15.2026 35.4404 14.6444 35.1348C11.55 33.4356 8.471 31.7097 5.3601 29.9779ZM15.8787 4.70388C12.6798 6.7601 9.46541 8.81731 6.27035 10.9072C6.07978 11.0318 5.9463 11.4225 5.96467 11.6766C6.07882 13.2888 5.52745 14.2778 4.10162 15.0522C3.87139 15.1769 3.63827 15.5537 3.63537 15.8168C3.60248 18.686 3.60248 21.5562 3.63634 24.4254C3.63924 24.6836 3.88881 25.0564 4.12193 25.1751C5.43555 25.8477 6.06237 26.8792 5.98209 28.3925C5.96951 28.6318 6.16394 29.0007 6.36708 29.1165C9.51184 30.9027 12.673 32.6572 15.8255 34.4158C17.5706 32.2933 19.6281 32.4772 21.1768 34.4197C24.3283 32.6612 27.4904 30.9086 30.6323 29.1175C30.8461 28.9958 31.027 28.5814 31.0144 28.3134C30.9476 26.905 31.5232 25.8704 32.7333 25.2849C33.2741 25.0228 33.4027 24.7162 33.3988 24.1683C33.3805 21.4435 33.3814 18.7186 33.4027 15.9938C33.4066 15.4726 33.2915 15.1788 32.7701 14.9474C31.5135 14.3896 30.8683 13.2285 31.0647 11.8576C31.1527 11.2425 30.9283 10.9774 30.4785 10.6925C27.9025 9.05765 25.3401 7.39902 22.7709 5.75226C22.2031 5.3883 21.6285 5.03521 21.0742 4.68805C19.3437 6.58306 17.884 6.5801 15.8787 4.70388ZM18.4992 4.87399C19.4607 4.873 20.2723 4.04023 20.2742 3.05118C20.2762 2.05917 19.4743 1.23629 18.5011 1.23431C17.5309 1.23134 16.729 2.05522 16.7309 3.05217C16.7329 4.0521 17.5319 4.87498 18.4992 4.87399ZM20.2742 35.9943C20.2965 34.9805 19.5101 34.1388 18.5302 34.127C17.5628 34.1151 16.7387 34.9498 16.7319 35.9488C16.7261 36.9091 17.4932 37.7271 18.4402 37.7676C19.4153 37.8082 20.252 36.9991 20.2742 35.9943ZM4.78454 12.1751C4.78261 11.1712 3.98844 10.3721 2.99984 10.38C2.01027 10.3879 1.23835 11.19 1.24318 12.2038C1.24705 13.2146 2.04026 14.0157 3.02305 14.0019C4.01069 13.9871 4.78648 13.183 4.78454 12.1751ZM34.0286 10.3889C33.0158 10.3671 32.2342 11.1426 32.2294 12.1761C32.2245 13.1731 32.949 13.9584 33.9144 13.9999C34.9098 14.0434 35.7301 13.267 35.762 12.2503C35.7949 11.2276 35.0346 10.4107 34.0286 10.3889ZM3.05884 29.8395C4.04261 29.8207 4.81453 28.9928 4.78648 27.987C4.75843 26.9801 3.95168 26.1928 2.97179 26.2166C1.98512 26.2403 1.22094 27.0602 1.24318 28.0701C1.26543 29.071 2.07411 29.8582 3.05884 29.8395ZM33.9792 29.8395C34.962 29.8484 35.7591 29.0453 35.7639 28.0404C35.7688 27.0266 34.9949 26.2235 34.0044 26.2166C33.0158 26.2087 32.2274 27.0039 32.2206 28.0147C32.2139 29.0274 32.9877 29.8306 33.9792 29.8395Z" fill="#52555A" stroke="#52555A" stroke-width="0.2" stroke-miterlimit="10"/>
<path d="M18.4835 29.1155C16.453 31.4358 12.9765 30.5684 12.1107 28.1364C12.0363 27.9277 11.7258 27.7457 11.4878 27.6686C9.36936 26.9772 8.21148 25.2958 8.26081 23.0121C8.26759 22.6759 8.14183 22.2802 7.94934 22.0063C6.88915 20.499 6.89206 18.4833 7.95708 16.971C8.14957 16.6981 8.26468 16.2995 8.26081 15.9612C8.23276 13.6617 9.35002 12.0565 11.5158 11.3266C11.7325 11.2534 11.985 11.105 12.0943 10.9161C13.7155 8.10722 16.1242 7.6938 18.5202 9.88355C19.5968 8.65812 20.9772 8.24173 22.5965 8.69571C23.5541 8.96473 24.3193 9.67189 24.7701 10.5769C24.9287 10.8953 25.2692 11.2326 25.602 11.3444C27.6004 12.0159 28.7883 13.7349 28.7516 15.9108C28.7448 16.3292 28.8831 16.7327 29.1162 17.0759C30.0913 18.51 30.0845 20.5346 29.0998 21.9598C28.8802 22.2783 28.7487 22.7342 28.7516 23.1259C28.767 25.3047 27.6072 26.9742 25.571 27.6498C25.3272 27.7309 25.0332 27.8782 24.9132 28.0859C23.2843 30.8948 20.894 31.3063 18.4835 29.1155ZM9.52413 23.2139C9.45352 24.8389 10.3077 26.0505 11.5836 26.2809C11.868 25.4323 12.0866 24.5679 12.46 23.7796C12.5905 23.5047 13.1874 23.1951 13.4215 23.2891C13.9593 23.5057 13.7223 23.9656 13.4776 24.3671C12.8449 25.4046 12.8585 26.5203 13.2183 27.6349C13.5424 28.6408 14.5174 29.2609 15.6086 29.2342C16.7239 29.2075 17.6467 28.7338 17.7135 27.8486C17.8392 26.1721 17.7502 24.4789 17.7502 22.7678C17.2985 23.0438 16.869 23.3959 16.3795 23.569C16.3273 23.5878 16.2702 23.5937 16.2112 23.5917C15.7469 23.5729 15.479 23.0151 15.7566 22.6333C15.7962 22.5789 15.8407 22.5354 15.893 22.5077C17.1408 21.847 17.876 20.86 17.8827 19.417C17.8895 18.0115 17.0799 17.1174 15.9065 16.525C15.5002 16.3203 15.1791 16.0127 15.4886 15.5983C15.6337 15.4044 16.1541 15.3431 16.426 15.443C16.9106 15.622 17.3362 15.9701 17.8982 16.3163C17.8982 14.8387 17.9224 13.4827 17.8915 12.1267C17.8576 10.6491 17.224 9.92806 15.9075 9.77376C14.5871 9.61947 13.4427 10.38 13.1342 11.6579C12.8749 12.734 12.9223 13.7695 13.5192 14.7595C13.5433 14.7991 13.5579 14.8456 13.5646 14.896C13.6265 15.3332 13.1893 15.6635 12.7792 15.5231C12.6853 15.4904 12.6109 15.4469 12.5741 15.3817C12.2452 14.7912 12.045 14.1216 11.8293 13.4708C11.7451 13.2156 11.7557 12.9278 11.7209 12.638C10.1887 13.093 9.37904 14.3263 9.58024 15.8168C9.85206 15.8168 10.1432 15.7634 10.4015 15.8346C10.5833 15.8851 10.8368 16.0948 10.8494 16.251C10.8668 16.4607 10.7255 16.7307 10.5708 16.8919C10.4508 17.0156 10.2032 17.0106 10.0136 17.065C8.94858 17.3706 8.39334 18.1658 8.37496 19.4081C8.35561 20.7284 8.877 21.576 9.93428 21.8995C10.3821 22.0369 11.0099 22.0112 10.8726 22.7322C10.7468 23.3939 10.1713 23.1397 9.74468 23.1526C9.69051 23.1575 9.63828 23.1832 9.52413 23.2139ZM19.1867 16.2688C19.7342 15.9385 20.1695 15.5963 20.6619 15.4113C20.7073 15.3945 20.7567 15.3876 20.8079 15.3876C21.2413 15.3925 21.5092 15.8851 21.3109 16.2787C21.2684 16.3628 21.2171 16.432 21.1494 16.4736C18.3906 18.1737 18.379 20.8412 21.1233 22.5146C21.1668 22.5413 21.2055 22.5779 21.2393 22.6224C21.5305 23.0062 21.2529 23.5868 20.7779 23.5947C20.7199 23.5957 20.6657 23.5887 20.6145 23.57C20.126 23.3939 19.6984 23.0408 19.2244 22.7481C19.2244 24.4552 19.177 26.1187 19.2602 27.7764C19.2796 28.1522 19.6829 28.6131 20.0302 28.8465C21.5189 29.8484 23.5193 28.984 23.9024 27.2057C24.1297 26.1524 24.0475 25.1465 23.4603 24.1931C23.4323 24.1476 23.4187 24.0932 23.4158 24.0328C23.3887 23.5848 23.8589 23.2653 24.2564 23.4542C24.3058 23.478 24.3493 23.5067 24.386 23.5433C24.654 23.8162 24.8417 24.2128 24.9577 24.5916C25.1309 25.1584 25.2112 25.7538 25.3311 26.3393C26.8005 25.9209 27.615 24.6915 27.4312 23.1783C27.3306 23.1724 27.2222 23.1555 27.1158 23.1625C26.6921 23.1882 26.194 23.3049 26.1214 22.6759C26.0518 22.0676 26.5499 22.0409 26.9669 21.9301C28.0744 21.6364 28.6239 20.8254 28.6297 19.5248C28.6355 18.2182 28.0976 17.4023 27.0123 17.0779C26.8769 17.0373 26.6873 17.062 26.607 16.975C26.4174 16.7673 26.1814 16.52 26.1582 16.2708C26.1456 16.1363 26.5161 15.9078 26.7492 15.8257C26.9678 15.7486 27.2319 15.8089 27.4728 15.8089C27.5627 14.18 26.7173 12.9694 25.4211 12.7142C25.1386 13.5608 24.9142 14.4213 24.5495 15.2145C24.4325 15.4697 23.8714 15.7506 23.6422 15.6645C23.085 15.4548 23.3113 15.0019 23.5493 14.5963C24.1636 13.5499 24.1481 12.4333 23.7728 11.3246C23.4178 10.2752 22.3508 9.66893 21.1861 9.77278C20.0447 9.87465 19.2738 10.4226 19.2128 11.4403C19.118 13.0198 19.1867 14.6092 19.1867 16.2688Z" fill="#0DB0DF"/>
<path d="M12.4833 19.7255C12.5462 19.5741 12.5433 19.402 12.4775 19.2527C12.227 18.681 11.93 18.0757 11.7637 17.4358C11.7443 17.3607 11.7598 17.2756 11.7956 17.1846C11.9765 16.7306 12.5975 16.6525 12.8306 17.0808C12.848 17.1124 12.8616 17.145 12.8703 17.1787C13.0734 17.9561 13.4313 18.5287 14.1587 18.8956C14.8175 19.228 14.8242 19.7729 14.1723 20.0973C13.411 20.4761 13.0328 21.0617 12.8596 21.8885C12.8461 21.9538 12.8103 22.0131 12.76 22.0695C12.5017 22.3632 12.0413 22.3059 11.8372 21.9716C11.7675 21.8578 11.7259 21.752 11.7491 21.664C11.9281 20.9914 12.2231 20.3505 12.4833 19.7255Z" fill="#0DB0DF"/>
<path d="M24.5322 19.2794C24.4723 19.4288 24.4742 19.5969 24.5361 19.7453C24.7886 20.3456 25.0788 20.9598 25.249 21.6076C25.2674 21.6789 25.2539 21.759 25.22 21.844C25.0585 22.2594 24.509 22.3613 24.2275 22.0201C24.1859 21.9696 24.155 21.9162 24.1414 21.8589C23.9412 21.0439 23.5678 20.4544 22.8056 20.0796C22.1991 19.7809 22.1933 19.2161 22.7949 18.9204C23.5881 18.5307 23.9838 17.9284 24.1521 17.064C24.1676 16.9849 24.2256 16.9146 24.3049 16.8484C24.5806 16.6199 24.9956 16.6921 25.1804 17.0017C25.2452 17.1095 25.2839 17.2104 25.2616 17.2934C25.0807 17.9729 24.7944 18.6217 24.5322 19.2794Z" fill="#0DB0DF"/>
</g>
<defs>
<clipPath id="clip0">
<rect width="37" height="39" fill="white"/>
</clipPath>
</defs>
</svg>
