<svg width="13" height="13" viewBox="0 0 13 13" fill="none" xmlns="http://www.w3.org/2000/svg">
<g clip-path="url(#clip0)">
<path d="M12.9879 3.82204C12.9574 3.1313 12.8457 2.65642 12.6857 2.24493C12.5206 1.80815 12.2667 1.41709 11.934 1.09201C11.6089 0.761868 11.2152 0.505333 10.7835 0.34284C10.3696 0.182828 9.89725 0.0711275 9.20651 0.0406726C8.51061 0.00763851 8.28969 0 6.5247 0C4.75971 0 4.53879 0.00763851 3.84547 0.0380934C3.15473 0.0685482 2.67985 0.180348 2.26846 0.340261C1.83158 0.505333 1.44053 0.759288 1.11545 1.09201C0.785304 1.41709 0.528869 1.81073 0.366278 2.24245C0.206266 2.65642 0.0945649 3.12872 0.0641101 3.81946C0.031076 4.51536 0.0234375 4.73628 0.0234375 6.50127C0.0234375 8.26626 0.031076 8.48719 0.0615308 9.1805C0.0919857 9.87124 0.203786 10.3461 0.363798 10.7576C0.528869 11.1944 0.785304 11.5854 1.11545 11.9105C1.44053 12.2407 1.83416 12.4972 2.26589 12.6597C2.67985 12.8197 3.15215 12.9314 3.84299 12.9619C4.53621 12.9924 4.75723 13 6.52222 13C8.28721 13 8.50813 12.9924 9.20145 12.9619C9.89219 12.9314 10.3671 12.8197 10.7785 12.6597C11.6521 12.3219 12.3429 11.6312 12.6806 10.7576C12.8406 10.3436 12.9524 9.87124 12.9828 9.1805C13.0133 8.48719 13.0209 8.26626 13.0209 6.50127C13.0209 4.73628 13.0183 4.51536 12.9879 3.82204ZM11.8172 9.12971C11.7892 9.7646 11.6826 10.1074 11.5937 10.336C11.3753 10.9023 10.9258 11.3518 10.3594 11.5703C10.1309 11.6592 9.78555 11.7658 9.15314 11.7937C8.46746 11.8242 8.26182 11.8318 6.52728 11.8318C4.79274 11.8318 4.58452 11.8242 3.90132 11.7937C3.26643 11.7658 2.92359 11.6592 2.69503 11.5703C2.4132 11.4661 2.15666 11.301 1.94844 11.0852C1.73258 10.8744 1.56751 10.6204 1.46335 10.3386C1.37446 10.11 1.26782 9.7646 1.23994 9.13229C1.20939 8.44661 1.20185 8.24087 1.20185 6.50633C1.20185 4.77179 1.20939 4.56357 1.23994 3.88047C1.26782 3.24558 1.37446 2.90274 1.46335 2.67418C1.56751 2.39224 1.73258 2.13581 1.95102 1.92749C2.16172 1.71162 2.41568 1.54655 2.69761 1.44249C2.92617 1.3536 3.27159 1.24696 3.9039 1.21899C4.58958 1.18853 4.79532 1.18089 6.52976 1.18089C8.26688 1.18089 8.47252 1.18853 9.15572 1.21899C9.79061 1.24696 10.1334 1.3536 10.362 1.44249C10.6438 1.54655 10.9004 1.71162 11.1086 1.92749C11.3245 2.13829 11.4895 2.39224 11.5937 2.67418C11.6826 2.90274 11.7892 3.24806 11.8172 3.88047C11.8477 4.56615 11.8553 4.77179 11.8553 6.50633C11.8553 8.24087 11.8477 8.44403 11.8172 9.12971Z" fill="white"/>
<path d="M6.52311 3.16174C4.67945 3.16174 3.18359 4.6575 3.18359 6.50126C3.18359 8.34502 4.67945 9.84078 6.52311 9.84078C8.36687 9.84078 9.86263 8.34502 9.86263 6.50126C9.86263 4.6575 8.36687 3.16174 6.52311 3.16174ZM6.52311 8.66753C5.32704 8.66753 4.35685 7.69743 4.35685 6.50126C4.35685 5.30509 5.32704 4.335 6.52311 4.335C7.71928 4.335 8.68938 5.30509 8.68938 6.50126C8.68938 7.69743 7.71928 8.66753 6.52311 8.66753Z" fill="white"/>
<path d="M10.7762 3.02969C10.7762 3.46022 10.4271 3.80931 9.99642 3.80931C9.56589 3.80931 9.2168 3.46022 9.2168 3.02969C9.2168 2.59905 9.56589 2.25006 9.99642 2.25006C10.4271 2.25006 10.7762 2.59905 10.7762 3.02969Z" fill="white"/>
</g>
<defs>
<clipPath id="clip0">
<rect width="13" height="13" fill="white"/>
</clipPath>
</defs>
</svg>
