<svg width="16" height="16" viewBox="0 0 16 16" fill="none" xmlns="http://www.w3.org/2000/svg">
<g clip-path="url(#clip0)">
<path d="M11.9347 15.7443L12.4625 15.2202C12.6273 15.0552 12.7181 14.8358 12.7181 14.6012C12.7181 14.3668 12.6273 14.1471 12.4625 13.9822L6.48365 8.00358L12.4691 2.0181C12.6339 1.85341 12.7246 1.6337 12.7246 1.3993C12.7246 1.16489 12.6339 0.945048 12.4691 0.780234L11.9446 0.256002C11.6036 -0.0853341 11.048 -0.0853341 10.7069 0.256002L3.55485 7.38243C3.39016 7.54712 3.27413 7.76657 3.27413 8.00306L3.27413 8.00579C3.27413 8.24033 3.39029 8.45978 3.55485 8.62446L10.6875 15.7443C10.8522 15.9092 11.0783 15.9997 11.3127 16C11.5472 16 11.7702 15.9092 11.9347 15.7443Z" fill="#0DB0DF"/>
</g>
<defs>
<clipPath id="clip0">
<rect x="16" width="16" height="16" transform="rotate(90 16 0)" fill="white"/>
</clipPath>
</defs>
</svg>
