<svg width="12" height="12" viewBox="0 0 12 12" fill="none" xmlns="http://www.w3.org/2000/svg">
<g clip-path="url(#clip0)">
<path d="M11.9966 12V11.9995H11.9996V7.59849C11.9996 5.44549 11.5361 3.78699 9.01914 3.78699C7.80914 3.78699 6.99714 4.45099 6.66564 5.08049H6.63064V3.98799H4.24414V11.9995H6.72914V8.03249C6.72914 6.98799 6.92714 5.97799 8.22064 5.97799C9.49514 5.97799 9.51414 7.16999 9.51414 8.09949V12H11.9966Z" fill="white"/>
<path d="M0.197266 3.98849H2.68527V12H0.197266V3.98849Z" fill="white"/>
<path d="M1.441 0C0.6455 0 0 0.6455 0 1.441C0 2.2365 0.6455 2.8955 1.441 2.8955C2.2365 2.8955 2.882 2.2365 2.882 1.441C2.8815 0.6455 2.236 0 1.441 0V0Z" fill="white"/>
</g>
<defs>
<clipPath id="clip0">
<rect width="12" height="12" fill="white"/>
</clipPath>
</defs>
</svg>
