<svg width="215" height="27" viewBox="0 0 215 27" fill="none" xmlns="http://www.w3.org/2000/svg">
<path d="M11.4388 0C5.1223 0 0 5.1223 0 11.4388C0 15.5971 2.21583 19.2374 5.53957 21.2374C3.15108 19.446 1.60432 16.5899 1.60432 13.3669C1.60432 7.93525 6.00719 3.53237 11.4388 3.53237C16.8705 3.53237 21.2734 7.93525 21.2734 13.3669C21.2734 16.5827 19.7266 19.4388 17.3381 21.2374C20.6547 19.2374 22.8777 15.5971 22.8777 11.4388C22.8705 5.1223 17.7482 0 11.4388 0Z" fill="#0DB0DF"/>
<path d="M4.52516 8.18704C3.43163 9.66906 2.74818 11.4748 2.65466 13.446C2.64746 13.6619 2.64746 13.8705 2.64746 14.0863L11.1295 27L4.52516 8.18704Z" fill="#0DB0DF"/>
<path d="M18.4393 8.18704C19.5328 9.66906 20.2163 11.4748 20.3098 13.446C20.317 13.6619 20.317 13.8705 20.317 14.0863L11.835 27L18.4393 8.18704Z" fill="#0DB0DF"/>
<path d="M43.0719 7.50355H35.3956V12.1007H42.8489V14.8129H35.3956V21.2086H43.0719V23.9208H32.5107V4.79132H43.0719V7.50355Z" fill="#101922"/>
<path d="M53.209 23.928V3.48917L67.1658 18.0935V4.79132H70.0507V25.0935L56.0939 10.5251V23.928H53.209Z" fill="#101922"/>
<path d="M80.9932 23.928V4.79132H85.0076C86.9356 4.79132 88.4536 4.97837 89.5687 5.35967C90.7701 5.73377 91.8565 6.36686 92.8277 7.25895C94.8061 9.05751 95.7917 11.4316 95.7917 14.3597C95.7917 17.3021 94.7629 19.6834 92.7054 21.5036C91.6694 22.41 90.5903 23.0431 89.4608 23.4028C88.4032 23.7554 86.8996 23.9352 84.9644 23.9352H80.9932V23.928ZM83.8781 21.2158H85.1802C86.4752 21.2158 87.5543 21.0791 88.4176 20.8057C89.2737 20.5179 90.0507 20.0575 90.7486 19.4316C92.173 18.1366 92.8781 16.446 92.8781 14.3597C92.8781 12.2589 92.173 10.5611 90.7701 9.25175C89.504 8.08629 87.6406 7.50355 85.1802 7.50355H83.8781V21.2158Z" fill="#101922"/>
<path d="M116.331 7.50355H108.654V12.1007H116.108V14.8129H108.654V21.2086H116.331V23.9208H105.77V4.79132H116.331V7.50355Z" fill="#101922"/>
<path d="M137.719 19.2805H129.525L127.395 23.928H124.28L133.748 3.58267L142.885 23.928H139.726L137.719 19.2805ZM136.539 16.5683L133.698 10.0575L130.719 16.5683H136.539Z" fill="#101922"/>
<path d="M151.093 4.79132L156.388 18.0575L161.755 4.79132H164.913L156.323 25.3669L147.928 4.79132H151.093Z" fill="#101922"/>
<path d="M171.842 14.2734C171.842 11.5828 172.827 9.2662 174.806 7.33095C176.77 5.3957 179.137 4.43167 181.899 4.43167C184.626 4.43167 186.964 5.41009 188.914 7.35973C190.871 9.30937 191.849 11.6547 191.849 14.3885C191.849 17.1439 190.863 19.4748 188.899 21.3957C186.921 23.3238 184.54 24.2806 181.748 24.2806C179.273 24.2806 177.058 23.4245 175.094 21.7122C172.928 19.8202 171.842 17.3381 171.842 14.2734ZM174.755 14.3094C174.755 16.4245 175.468 18.1655 176.885 19.5252C178.295 20.8921 179.928 21.5684 181.784 21.5684C183.791 21.5684 185.489 20.8777 186.863 19.4892C188.245 18.0863 188.935 16.3741 188.935 14.3597C188.935 12.3166 188.252 10.6043 186.892 9.23023C185.54 7.84174 183.856 7.1511 181.856 7.1511C179.863 7.1511 178.18 7.84174 176.813 9.23023C175.439 10.5971 174.755 12.295 174.755 14.3094Z" fill="#101922"/>
<path d="M208.317 15.7697L214.245 23.928H210.712L205.245 16.0935H204.727V23.928H201.842V4.79132H205.223C207.748 4.79132 209.576 5.26614 210.705 6.21578C211.943 7.27334 212.561 8.66902 212.561 10.4028C212.561 11.7553 212.173 12.9208 211.396 13.8992C210.612 14.8777 209.583 15.5036 208.317 15.7697ZM204.719 13.5755H205.633C208.367 13.5755 209.734 12.5323 209.734 10.4388C209.734 8.48197 208.403 7.50355 205.741 7.50355H204.712V13.5755H204.719Z" fill="#101922"/>
</svg>
