<svg width="215" height="27" viewBox="0 0 215 27" fill="none" xmlns="http://www.w3.org/2000/svg">
<path d="M11.4388 0C5.1223 0 0 5.1223 0 11.4388C0 15.5971 2.21583 19.2374 5.53957 21.2374C3.15108 19.446 1.60432 16.5899 1.60432 13.3669C1.60432 7.93525 6.00719 3.53237 11.4388 3.53237C16.8705 3.53237 21.2734 7.93525 21.2734 13.3669C21.2734 16.5827 19.7266 19.4388 17.3381 21.2374C20.6547 19.2374 22.8777 15.5971 22.8777 11.4388C22.8705 5.1223 17.7482 0 11.4388 0Z" fill="#0DB0DF"/>
<path d="M4.52516 8.18701C3.43163 9.66903 2.74818 11.4748 2.65466 13.446C2.64746 13.6618 2.64746 13.8705 2.64746 14.0863L11.1295 27L4.52516 8.18701Z" fill="#0DB0DF"/>
<path d="M18.4393 8.18701C19.5328 9.66903 20.2163 11.4748 20.3098 13.446C20.317 13.6618 20.317 13.8705 20.317 14.0863L11.835 27L18.4393 8.18701Z" fill="#0DB0DF"/>
<path d="M43.0719 7.50373H35.3956V12.1009H42.8489V14.8131H35.3956V21.2088H43.0719V23.921H32.5107V4.7915H43.0719V7.50373Z" fill="white"/>
<path d="M53.209 23.9281V3.48926L67.1658 18.0936V4.79142H70.0507V25.0936L56.0939 10.5252V23.9281H53.209Z" fill="white"/>
<path d="M80.9932 23.9282V4.7915H85.0076C86.9356 4.7915 88.4536 4.97855 89.5687 5.35985C90.7701 5.73395 91.8565 6.36704 92.8277 7.25913C94.8061 9.05769 95.7917 11.4318 95.7917 14.3599C95.7917 17.3023 94.7629 19.6836 92.7054 21.5037C91.6694 22.4102 90.5903 23.0433 89.4608 23.403C88.4032 23.7555 86.8996 23.9354 84.9644 23.9354H80.9932V23.9282ZM83.8781 21.216H85.1802C86.4752 21.216 87.5543 21.0793 88.4176 20.8059C89.2737 20.5181 90.0507 20.0577 90.7486 19.4318C92.173 18.1368 92.8781 16.4462 92.8781 14.3599C92.8781 12.2591 92.173 10.5613 90.7701 9.25194C89.504 8.08647 87.6406 7.50374 85.1802 7.50374H83.8781V21.216Z" fill="white"/>
<path d="M116.331 7.50373H108.654V12.1009H116.108V14.8131H108.654V21.2088H116.331V23.921H105.77V4.7915H116.331V7.50373Z" fill="white"/>
<path d="M137.719 19.2808H129.525L127.395 23.9283H124.28L133.748 3.58301L142.885 23.9283H139.726L137.719 19.2808ZM136.539 16.5686L133.698 10.0578L130.719 16.5686H136.539Z" fill="white"/>
<path d="M151.093 4.7915L156.388 18.0577L161.755 4.7915H164.913L156.323 25.367L147.928 4.7915H151.093Z" fill="white"/>
<path d="M171.842 14.2734C171.842 11.5827 172.827 9.26617 174.806 7.33092C176.77 5.39567 179.137 4.43164 181.899 4.43164C184.626 4.43164 186.964 5.41006 188.914 7.3597C190.871 9.30934 191.849 11.6547 191.849 14.3885C191.849 17.1439 190.863 19.4748 188.899 21.3957C186.921 23.3237 184.54 24.2806 181.748 24.2806C179.273 24.2806 177.058 23.4244 175.094 21.7122C172.928 19.8201 171.842 17.3381 171.842 14.2734ZM174.755 14.3093C174.755 16.4244 175.468 18.1655 176.885 19.5252C178.295 20.8921 179.928 21.5683 181.784 21.5683C183.791 21.5683 185.489 20.8777 186.863 19.4892C188.245 18.0863 188.935 16.3741 188.935 14.3597C188.935 12.3165 188.252 10.6043 186.892 9.2302C185.54 7.84171 183.856 7.15107 181.856 7.15107C179.863 7.15107 178.18 7.84171 176.813 9.2302C175.439 10.5971 174.755 12.295 174.755 14.3093Z" fill="white"/>
<path d="M208.317 15.7699L214.245 23.9282H210.712L205.245 16.0937H204.727V23.9282H201.842V4.7915H205.223C207.748 4.7915 209.576 5.26632 210.705 6.21596C211.943 7.27352 212.561 8.6692 212.561 10.403C212.561 11.7555 212.173 12.921 211.396 13.8994C210.612 14.8778 209.583 15.5037 208.317 15.7699ZM204.719 13.5757H205.633C208.367 13.5757 209.734 12.5325 209.734 10.439C209.734 8.48215 208.403 7.50373 205.741 7.50373H204.712V13.5757H204.719Z" fill="white"/>
</svg>
