<svg width="12" height="12" viewBox="0 0 12 12" fill="none" xmlns="http://www.w3.org/2000/svg">
<g clip-path="url(#clip0)">
<path d="M5.28455 0C2.37073 0 0 2.37073 0 5.28455C0 8.19853 2.37073 10.5691 5.28455 10.5691C8.19853 10.5691 10.5691 8.19853 10.5691 5.28455C10.5691 2.37073 8.19853 0 5.28455 0ZM5.28455 9.59351C2.90862 9.59351 0.975609 7.6605 0.975609 5.28457C0.975609 2.90864 2.90862 0.975609 5.28455 0.975609C7.66048 0.975609 9.59348 2.90862 9.59348 5.28455C9.59348 7.66048 7.66048 9.59351 5.28455 9.59351Z" fill="white"/>
<path d="M11.858 11.1673L9.06121 8.37056C8.87064 8.17999 8.56201 8.17999 8.37144 8.37056C8.18087 8.56096 8.18087 8.86992 8.37144 9.06032L11.1682 11.8571C11.2635 11.9523 11.3882 12 11.5131 12C11.6378 12 11.7627 11.9523 11.858 11.8571C12.0485 11.6667 12.0485 11.3577 11.858 11.1673Z" fill="white"/>
</g>
<defs>
<clipPath id="clip0">
<rect width="12" height="12" fill="white"/>
</clipPath>
</defs>
</svg>
