<svg width="16" height="16" viewBox="0 0 16 16" fill="none" xmlns="http://www.w3.org/2000/svg">
<g clip-path="url(#clip0)">
<path d="M4.06525 15.7443L3.53751 15.2202C3.37269 15.0552 3.2819 14.8358 3.2819 14.6012C3.2819 14.3668 3.37269 14.1471 3.53751 13.9822L9.51635 8.00358L3.53087 2.0181C3.36606 1.85341 3.27539 1.6337 3.27539 1.3993C3.27539 1.16489 3.36606 0.945048 3.53087 0.780234L4.05536 0.256002C4.39644 -0.0853341 4.95202 -0.0853341 5.2931 0.256002L12.4452 7.38243C12.6098 7.54712 12.7259 7.76657 12.7259 8.00306L12.7259 8.00579C12.7259 8.24033 12.6097 8.45978 12.4452 8.62446L5.31248 15.7443C5.1478 15.9092 4.92171 15.9997 4.6873 16C4.45277 16 4.22981 15.9092 4.06525 15.7443Z" fill="#0DB0DF"/>
</g>
<defs>
<clipPath id="clip0">
<rect width="16" height="16" transform="matrix(4.37114e-08 1 1 -4.37114e-08 0 0)" fill="white"/>
</clipPath>
</defs>
</svg>
