<svg width="12" height="11" viewBox="0 0 12 11" fill="none" xmlns="http://www.w3.org/2000/svg">
<path d="M11.9853 1.78501C11.5471 1.97724 11.0802 2.10466 10.5933 2.16652C11.0942 1.8675 11.4764 1.39761 11.6561 0.831228C11.1892 1.10963 10.6736 1.30628 10.1242 1.41602C9.6808 0.943915 9.04888 0.65152 8.3595 0.65152C7.022 0.65152 5.94522 1.73714 5.94522 3.06801C5.94522 3.2595 5.96142 3.44363 6.00119 3.61892C3.99273 3.52097 2.21553 2.55835 1.02164 1.09195C0.813212 1.45358 0.690952 1.8675 0.690952 2.31309C0.690952 3.14976 1.12181 3.89143 1.76405 4.32082C1.37591 4.31345 0.995131 4.20077 0.672539 4.02327C0.672539 4.03063 0.672539 4.04021 0.672539 4.04978C0.672539 5.22378 1.50995 6.19892 2.60809 6.42356C2.41144 6.47732 2.19712 6.5031 1.97469 6.5031C1.82002 6.5031 1.66388 6.49426 1.51732 6.46185C1.83033 7.41858 2.71857 8.12195 3.77472 8.14478C2.95278 8.78776 1.90914 9.17516 0.779333 9.17516C0.581211 9.17516 0.391192 9.16632 0.201172 9.14202C1.27132 9.83213 2.53959 10.2262 3.90729 10.2262C8.35287 10.2262 10.7834 6.54361 10.7834 3.35157C10.7834 3.24477 10.7797 3.14166 10.7745 3.03929C11.254 2.69902 11.6569 2.27405 11.9853 1.78501Z" fill="white"/>
</svg>
