<svg width="470" height="556" viewBox="0 0 470 556" fill="none" xmlns="http://www.w3.org/2000/svg">
<path d="M234.977 0.885986C105.171 0.885986 0 106.112 0 235.987C0 321.494 45.6192 396.291 113.751 437.43C64.6485 400.541 32.8764 341.808 32.8764 275.681C32.8764 163.995 123.35 73.4733 234.977 73.4733C346.604 73.4733 437.078 163.995 437.078 275.681C437.078 341.808 405.306 400.541 356.204 437.43C424.42 396.291 469.955 321.494 469.955 235.987C469.955 106.112 364.784 0.885986 234.977 0.885986Z" fill="white"/>
<path d="M93.0224 169.18C70.5102 199.609 56.4931 236.752 54.5392 277.381C54.3693 281.8 54.3693 286.135 54.4542 290.47L228.861 555.915L93.0224 169.18Z" fill="white"/>
<path d="M378.886 169.18C401.398 199.609 415.415 236.752 417.369 277.381C417.539 281.8 417.539 286.135 417.454 290.47L243.133 556L378.886 169.18Z" fill="white"/>
</svg>
