<svg width="14" height="10" viewBox="0 0 14 10" fill="none" xmlns="http://www.w3.org/2000/svg">
<path d="M13.01 1.87707C12.8633 1.32082 12.4334 0.882343 11.8883 0.732563C10.8923 0.454559 6.90842 0.454559 6.90842 0.454559C6.90842 0.454559 2.92469 0.454559 1.92874 0.722023C1.39406 0.871644 0.953681 1.3209 0.807018 1.87707C0.544922 2.89303 0.544922 5.00001 0.544922 5.00001C0.544922 5.00001 0.544922 7.11761 0.807018 8.12296C0.953836 8.67912 1.38357 9.11761 1.92881 9.26739C2.93517 9.54547 6.90857 9.54547 6.90857 9.54547C6.90857 9.54547 10.8923 9.54547 11.8883 9.27801C12.4335 9.12831 12.8633 8.68982 13.0101 8.13366C13.2721 7.11761 13.2721 5.01071 13.2721 5.01071C13.2721 5.01071 13.2826 2.89303 13.01 1.87707ZM5.64004 6.94652V3.05351L8.95283 5.00001L5.64004 6.94652Z" fill="white"/>
</svg>
