<svg width="13" height="13" viewBox="0 0 13 13" fill="none" xmlns="http://www.w3.org/2000/svg">
<g clip-path="url(#clip0)">
<path d="M3.30192 0.20779L2.87313 0.633623C2.73921 0.76764 2.66544 0.945942 2.66544 1.13651C2.66544 1.32696 2.73921 1.50548 2.87313 1.63949L7.73094 6.49709L2.86774 11.3603C2.73382 11.4941 2.66016 11.6726 2.66016 11.8631C2.66016 12.0535 2.73382 12.2321 2.86774 12.3661L3.29388 12.792C3.57101 13.0693 4.02242 13.0693 4.29954 12.792L10.1106 7.00177C10.2444 6.86797 10.3387 6.68966 10.3387 6.49752L10.3387 6.4953C10.3387 6.30473 10.2443 6.12643 10.1106 5.99263L4.31529 0.20779C4.18149 0.0737734 3.99779 0.000210778 3.80734 1.368e-08C3.61677 1.14076e-08 3.43562 0.0737734 3.30192 0.20779Z" fill="#0DB0DF"/>
</g>
<defs>
<clipPath id="clip0">
<rect width="13" height="13" fill="white" transform="translate(0 13) rotate(-90)"/>
</clipPath>
</defs>
</svg>
