<svg width="46" height="44" viewBox="0 0 46 44" fill="none" xmlns="http://www.w3.org/2000/svg">
<g clip-path="url(#clip0)">
<path d="M26.8333 28.3159H19.1906C18.8063 28.3159 18.4632 28.5949 18.4086 28.9849C18.3405 29.4712 18.7066 29.8877 19.1666 29.8877H26.8093C27.1936 29.8877 27.5367 29.6087 27.5913 29.2187C27.6603 28.7324 27.2942 28.3159 26.8333 28.3159Z" fill="#0DB0DF"/>
<path d="M32.9666 29.8877C33.4275 29.8877 33.7936 29.4712 33.7246 28.9849C33.67 28.5949 33.3269 28.3159 32.9426 28.3159H30.6906C30.3063 28.3159 29.9632 28.5949 29.9086 28.9849C29.8405 29.4712 30.2066 29.8877 30.6666 29.8877H32.9666Z" fill="#0DB0DF"/>
<path d="M15.3331 29.8569C15.7565 29.8569 16.0997 29.505 16.0997 29.071C16.0997 28.637 15.7565 28.2852 15.3331 28.2852C14.9097 28.2852 14.5664 28.637 14.5664 29.071C14.5664 29.505 14.9097 29.8569 15.3331 29.8569Z" fill="#0DB0DF"/>
<path d="M12.2667 29.8569C12.6901 29.8569 13.0333 29.505 13.0333 29.071C13.0333 28.637 12.6901 28.2852 12.2667 28.2852C11.8432 28.2852 11.5 28.637 11.5 29.071C11.5 29.505 11.8432 29.8569 12.2667 29.8569Z" fill="#0DB0DF"/>
<path d="M43.8914 33.0311L45.8339 30.3758C46.0036 30.144 46.0524 29.8336 45.9355 29.5703C45.8033 29.2726 45.5253 29.1017 45.2331 29.1017H40.6331V25.9582C40.6331 25.524 40.29 25.1724 39.8664 25.1724H6.13309C5.70951 25.1724 5.36642 25.524 5.36642 25.9582V29.1017H0.790385C0.406094 29.1017 0.0630108 29.3807 0.00838581 29.7707C-0.0596558 30.257 0.306427 30.6735 0.766427 30.6735H5.36642V32.2452C5.37217 32.4967 5.49388 32.7305 5.69609 32.8739L9.10775 35.3887H2.29976L3.66442 33.5232C3.88292 33.2246 3.88963 32.8002 3.64909 32.5193C3.31463 32.1283 2.73963 32.1676 2.45309 32.5596L0.165552 35.6863C-0.00407252 35.9182 -0.0529475 36.2276 0.0639691 36.4909C0.196219 36.7885 0.474135 36.9595 0.766427 36.9595H11.5007C11.9243 36.9595 12.2664 36.6078 12.2664 36.1746V33.0301H26.0424C26.4267 33.0301 26.7698 32.7511 26.8244 32.3611C26.8925 31.8749 26.5264 31.4584 26.0664 31.4584H6.89976V26.7431H39.0997V31.4584H29.157C28.7727 31.4584 28.4297 31.7373 28.375 32.1273C28.307 32.6136 28.6731 33.0301 29.1331 33.0301H33.7331V36.1736C33.7331 36.6078 34.0761 36.9595 34.4997 36.9595H45.2129C45.4956 36.9595 45.7668 36.8131 45.9029 36.5596C46.0563 36.2728 46.0227 35.9418 45.8473 35.7021L43.8914 33.0311ZM10.7331 34.65L8.52509 33.0311H10.7331V34.65ZM37.4744 33.0311L35.2664 34.65V33.0311H37.4744ZM42.3197 33.5026L43.6997 35.3887H36.8917L40.3111 32.8818C40.5123 32.7354 40.6321 32.4977 40.6331 32.2452V30.6735H43.6997L42.3197 32.5596C42.1156 32.8385 42.1156 33.2226 42.3197 33.5026Z" fill="#52555A"/>
<path d="M26.2031 23.5071C26.3009 23.5473 26.4044 23.5689 26.5098 23.5699C26.8126 23.568 27.0867 23.3833 27.2075 23.0984C27.4662 22.5051 27.5994 21.8626 27.5985 21.2123C27.5985 18.6081 25.539 16.4971 22.9984 16.4971C20.4579 16.4971 18.3984 18.6081 18.3984 21.2123C18.3975 21.8626 18.5307 22.5051 18.7894 23.0984C18.9581 23.4943 19.4066 23.677 19.7938 23.5071C20.1829 23.3351 20.3621 22.8725 20.1944 22.4746C20.1934 22.4727 20.1934 22.4717 20.1924 22.4697C20.019 22.0748 19.9299 21.6455 19.9318 21.2123C19.9318 19.4765 21.3051 18.0688 22.9984 18.0688C24.6918 18.0688 26.0651 19.4765 26.0651 21.2123C26.067 21.6455 25.9779 22.0748 25.8045 22.4697C25.6348 22.8676 25.8112 23.3302 26.1983 23.5051C26.2002 23.5051 26.2022 23.5061 26.2031 23.5071Z" fill="#0DB0DF"/>
<path d="M7.94981 23.5702C8.35806 23.4592 8.60148 23.0299 8.49415 22.6114C7.94502 20.4699 7.6671 18.2636 7.66615 16.0494V9.47163C13.3999 9.68873 18.9026 7.14446 22.5395 2.59524L22.9995 2.02156L23.4595 2.59524C27.0964 7.14446 32.5991 9.68873 38.3328 9.47163V16.0494C38.3299 18.2557 38.052 20.4532 37.5048 22.5878C37.386 23.0044 37.6179 23.4405 38.0242 23.5633C38.0329 23.5663 38.0405 23.5682 38.0491 23.5702C38.1153 23.578 38.1824 23.578 38.2485 23.5702C38.6069 23.582 38.926 23.3374 39.0151 22.9808C39.5863 20.7165 39.8719 18.3874 39.8661 16.0494V8.63861C39.8681 8.41758 39.7789 8.20736 39.6208 8.05706C39.4598 7.91364 39.2509 7.84095 39.0381 7.85273C33.5296 8.32917 28.1467 5.99218 24.6478 1.60504L23.5898 0.284779C23.3196 -0.0492174 22.8366 -0.0953874 22.5107 0.18065C22.4743 0.212085 22.4398 0.246467 22.4091 0.284779L21.3511 1.60504C17.8551 6.00004 12.4741 8.35078 6.96081 7.89203C6.74806 7.88024 6.53915 7.95293 6.37815 8.09635C6.2296 8.23683 6.14144 8.43133 6.13281 8.63861V16.0494C6.13665 18.3893 6.43373 20.7185 7.01448 22.9808C7.10744 23.4042 7.5176 23.6704 7.93065 23.5751C7.93735 23.5731 7.9431 23.5712 7.94981 23.5702Z" fill="#52555A"/>
<path d="M30.4811 34.8319L22.9985 42.1326L15.5311 34.8397L15.4775 34.7847C15.166 34.5048 14.6945 34.5293 14.4118 34.8397C14.1214 35.1561 14.1358 35.6531 14.4444 35.9508C14.4492 35.9547 14.453 35.9596 14.4578 35.9635L22.4695 43.783C22.7656 44.0728 23.2313 44.0728 23.5275 43.783L31.5698 35.9243L31.0485 35.3584L30.4811 34.8319Z" fill="#52555A"/>
<path d="M33.6193 23.592C34.0937 23.6617 34.5 23.2865 34.5 22.815V18.8856C34.5 18.4514 34.1569 18.0997 33.7333 18.0997H31.671C31.5637 17.7854 31.4333 17.4789 31.303 17.1803L32.7597 15.6881C33.0606 15.3826 33.0625 14.8855 32.7645 14.5771C32.7625 14.5751 32.7616 14.5741 32.7597 14.5721L29.509 11.242C29.211 10.9335 28.7251 10.9316 28.4251 11.2371C28.4232 11.2391 28.4222 11.24 28.4203 11.242L26.9637 12.7342C26.6723 12.6006 26.3733 12.467 26.0667 12.357V10.7312C26.0667 10.297 25.7236 9.94531 25.3 9.94531H20.7C20.2764 9.94531 19.9333 10.297 19.9333 10.7312V12.357C19.6267 12.467 19.3277 12.6006 19.0363 12.7342L17.5797 11.242C17.2816 10.9335 16.7958 10.9316 16.4958 11.2371C16.4939 11.2391 16.4929 11.24 16.491 11.242L13.2403 14.5721C12.9394 14.8776 12.9375 15.3747 13.2355 15.6832C13.2375 15.6851 13.2384 15.6861 13.2403 15.6881L14.697 17.1803C14.5667 17.4789 14.4363 17.7854 14.329 18.0997H12.2667C11.8431 18.0997 11.5 18.4514 11.5 18.8856V22.7904C11.5 23.1843 11.7722 23.536 12.1526 23.592C12.627 23.6617 13.0333 23.2865 13.0333 22.815V19.6715H14.8657C15.2202 19.6852 15.5365 19.4485 15.6323 19.0998C15.7905 18.5153 16.0166 17.9524 16.307 17.4239C16.4776 17.1184 16.4278 16.7333 16.1843 16.4838L14.8657 15.1448L17.0353 12.9287L18.3463 14.2755C18.5907 14.524 18.9673 14.5751 19.2663 14.4012C19.7838 14.1045 20.3349 13.8737 20.907 13.7116C21.2482 13.6144 21.4801 13.2902 21.4667 12.9287V11.519H24.5333V12.9287C24.5199 13.2902 24.7518 13.6144 25.093 13.7116C25.6651 13.8727 26.2162 14.1045 26.7337 14.4012C27.0327 14.5751 27.4093 14.524 27.6537 14.2755L28.9647 12.9287L31.1343 15.1448L29.8157 16.4838C29.5722 16.7333 29.5224 17.1174 29.693 17.4239C29.9834 17.9524 30.2095 18.5153 30.3677 19.0998C30.4635 19.4485 30.7798 19.6852 31.1343 19.6715H32.9667V22.7904C32.9667 23.1843 33.2388 23.536 33.6193 23.592Z" fill="#0DB0DF"/>
</g>
<defs>
<clipPath id="clip0">
<rect width="46" height="44" fill="white"/>
</clipPath>
</defs>
</svg>
