<svg width="44" height="44" viewBox="0 0 44 44" fill="none" xmlns="http://www.w3.org/2000/svg">
<path d="M26.5645 13.6408C26.177 13.3658 25.6407 13.4569 25.3666 13.8444L25.3502 13.8676C25.0752 14.2544 25.1663 14.7915 25.5539 15.0656C25.7052 15.173 25.8787 15.2246 26.0506 15.2246C26.3196 15.2246 26.5843 15.0983 26.7519 14.8628L26.7682 14.8396C27.0423 14.452 26.9512 13.9158 26.5645 13.6408Z" fill="#0DB0DF"/>
<path d="M24.6058 16.0765C24.305 15.7096 23.7636 15.6563 23.3967 15.9571C22.203 16.9367 20.846 17.6337 19.3645 18.029C18.9056 18.1519 18.6332 18.622 18.7561 19.0809C18.8583 19.465 19.2064 19.7185 19.5853 19.7185C19.6584 19.7185 19.7332 19.7091 19.8079 19.6893C21.5284 19.2296 23.1019 18.4209 24.4872 17.2857C24.8542 16.9849 24.9075 16.4435 24.6058 16.0765Z" fill="#52555A"/>
<path d="M41.4219 19.4623C40.0005 19.4623 38.8438 20.619 38.8438 22.0404V22.4701C38.8438 26.0743 36.2192 29.0744 32.7817 29.6665C33.2303 29.0048 33.4933 28.2064 33.4933 27.3479V26.7506C33.4933 24.4664 31.6345 22.6084 29.3502 22.6084C27.066 22.6084 25.208 24.4664 25.208 26.7506V27.3479C25.208 28.1849 25.4581 28.9635 25.8861 29.6158C22.5835 28.9154 20.0973 25.978 20.0973 22.4701V22.0404C20.0973 20.619 18.9406 19.4623 17.5192 19.4623C16.0978 19.4623 14.9411 20.619 14.9411 22.0404V22.4701C14.9411 24.2146 15.296 25.9016 15.9809 27.4596H10.2902H10.1329V18.8048C10.1329 18.4216 9.87852 18.0838 9.50984 17.979C4.92336 16.6667 1.71875 12.4188 1.71875 7.64844V7.21875C1.71875 6.74523 2.10461 6.35938 2.57812 6.35938C3.05164 6.35938 3.4375 6.74523 3.4375 7.21875V7.64844C3.4375 12.6242 7.48516 16.6719 12.4609 16.6719H16.5971C21.5729 16.6719 25.6205 12.6242 25.6205 7.64844V7.21875C25.6205 6.74523 26.0064 6.35938 26.4799 6.35938C26.9534 6.35938 27.3393 6.74523 27.3393 7.21875V7.64844C27.3393 8.9693 27.1012 10.2601 26.632 11.4838C26.4619 11.9273 26.6836 12.424 27.127 12.5941C27.5696 12.7643 28.0672 12.5426 28.2373 12.0991C28.7822 10.6786 29.0589 9.1807 29.0589 7.64844V7.21875C29.0589 5.79734 27.9022 4.64062 26.4808 4.64062C25.0594 4.64062 23.9027 5.79734 23.9027 7.21875V7.64844C23.9027 11.2527 21.2781 14.2527 17.8415 14.8448C18.2901 14.1823 18.553 13.3848 18.553 12.5262V11.929C18.553 9.64477 16.6942 7.78594 14.41 7.78594C12.1258 7.78594 10.2678 9.64477 10.2678 11.929V12.5262C10.2678 13.3633 10.5179 14.1419 10.9459 14.7933C7.64242 14.0938 5.15625 11.1564 5.15625 7.64844V7.21875C5.15625 5.79734 3.99953 4.64062 2.57812 4.64062C1.15672 4.64062 0 5.79734 0 7.21875V7.64844C0 10.4079 0.886875 13.0238 2.56523 15.2135C4.05539 17.1583 6.11531 18.6407 8.41586 19.4348V28.319C8.41586 28.7934 8.80086 29.1784 9.27523 29.1784H9.4325V43.1406C9.4325 43.615 9.8175 44 10.2919 44C10.7663 44 11.1512 43.615 11.1512 43.1406V29.1784H16.9056C17.0938 29.4705 17.2941 29.7567 17.508 30.0352C17.5648 30.1091 17.6241 30.1812 17.6825 30.2543V43.1406C17.6825 43.615 18.0675 44 18.5419 44C19.0162 44 19.4012 43.615 19.4012 43.1406V32.0109C20.5726 32.9923 21.9184 33.7588 23.3587 34.2564V43.1406C23.3587 43.615 23.7437 44 24.218 44C24.6924 44 25.0774 43.615 25.0774 43.1406V33.6265C25.0774 33.2432 24.823 32.9055 24.4544 32.8006C19.8662 31.4884 16.6616 27.2405 16.6616 22.4701V22.0404C16.6616 21.5669 17.0474 21.181 17.5209 21.181C17.9945 21.181 18.3803 21.5669 18.3803 22.0404V22.4701C18.3803 27.4459 22.428 31.4935 27.4038 31.4935H31.5391C36.5148 31.4935 40.5625 27.4459 40.5625 22.4701V22.0404C40.5625 21.5669 40.9484 21.181 41.4219 21.181C41.8954 21.181 42.2812 21.5669 42.2812 22.0404V22.4701C42.2812 27.3281 39.0027 31.5975 34.308 32.8505C33.9316 32.951 33.6703 33.2913 33.6703 33.6806V39.9034C33.6703 40.3777 34.0553 40.7627 34.5297 40.7627C35.0041 40.7627 35.3891 40.3777 35.3891 39.9034V34.3226C40.492 32.6648 44 27.8833 44 22.4701V22.0404C44 20.619 42.8433 19.4623 41.4219 19.4623ZM11.9848 11.929C11.9848 10.5927 13.072 9.50469 14.4083 9.50469C15.7446 9.50469 16.8326 10.5918 16.8326 11.929V12.5262C16.8326 13.8626 15.7455 14.9497 14.4083 14.9497C13.072 14.9497 11.9848 13.8626 11.9848 12.5262V11.929ZM31.7745 27.3479C31.7745 28.6842 30.6874 29.7713 29.3511 29.7713C28.0148 29.7713 26.9277 28.6842 26.9277 27.3479V26.7506C26.9277 25.4143 28.0148 24.3272 29.3511 24.3272C30.6874 24.3272 31.7745 25.4143 31.7745 26.7506V27.3479Z" fill="#52555A"/>
<path d="M35.1369 42.533C34.977 42.3732 34.7553 42.2812 34.5293 42.2812C34.3033 42.2812 34.0816 42.3732 33.9217 42.533C33.7619 42.6929 33.6699 42.9146 33.6699 43.1406C33.6699 43.3666 33.7619 43.5884 33.9217 43.7482C34.0816 43.908 34.3033 44 34.5293 44C34.7553 44 34.977 43.908 35.1369 43.7482C35.2967 43.5884 35.3887 43.3666 35.3887 43.1406C35.3887 42.9146 35.2967 42.6929 35.1369 42.533Z" fill="#0DB0DF"/>
<path d="M14.4082 32.1406C13.9338 32.1406 13.5488 32.5256 13.5488 33V43.1406C13.5488 43.615 13.9338 44 14.4082 44C14.8826 44 15.2676 43.615 15.2676 43.1406V33C15.2676 32.5256 14.8826 32.1406 14.4082 32.1406Z" fill="#52555A"/>
<path d="M40.0469 7.04688C39.5725 7.04688 39.1875 7.43187 39.1875 7.90625V8.97445C39.1875 9.44883 39.5725 9.83383 40.0469 9.83383C40.5213 9.83383 40.9062 9.44883 40.9062 8.97445V7.90625C40.9062 7.43187 40.5213 7.04688 40.0469 7.04688Z" fill="#0DB0DF"/>
<path d="M40.0469 12.1665C39.5725 12.1665 39.1875 12.5515 39.1875 13.0259V14.0941C39.1875 14.5685 39.5725 14.9535 40.0469 14.9535C40.5213 14.9535 40.9062 14.5685 40.9062 14.0941V13.0259C40.9062 12.5515 40.5213 12.1665 40.0469 12.1665Z" fill="#0DB0DF"/>
<path d="M43.1405 10.1406H42.0723C41.5979 10.1406 41.2129 10.5256 41.2129 11C41.2129 11.4744 41.5979 11.8594 42.0723 11.8594H43.1405C43.6148 11.8594 43.9998 11.4744 43.9998 11C43.9998 10.5256 43.6148 10.1406 43.1405 10.1406Z" fill="#0DB0DF"/>
<path d="M38.0213 10.1406H36.9531C36.4788 10.1406 36.0938 10.5256 36.0938 11C36.0938 11.4744 36.4788 11.8594 36.9531 11.8594H38.0213C38.4957 11.8594 38.8807 11.4744 38.8807 11C38.8807 10.5256 38.4957 10.1406 38.0213 10.1406Z" fill="#0DB0DF"/>
<path d="M18.8965 0C18.4221 0 18.0371 0.385 18.0371 0.859375V1.92758C18.0371 2.40195 18.4221 2.78695 18.8965 2.78695C19.3709 2.78695 19.7559 2.40195 19.7559 1.92758V0.859375C19.7559 0.385 19.3717 0 18.8965 0Z" fill="#0DB0DF"/>
<path d="M18.8965 5.11963C18.4221 5.11963 18.0371 5.50463 18.0371 5.979V7.04721C18.0371 7.52158 18.4221 7.90658 18.8965 7.90658C19.3709 7.90658 19.7559 7.52158 19.7559 7.04721V5.979C19.7559 5.50463 19.3717 5.11963 18.8965 5.11963Z" fill="#0DB0DF"/>
<path d="M21.9901 3.09375H20.9219C20.4475 3.09375 20.0625 3.47875 20.0625 3.95312C20.0625 4.4275 20.4475 4.8125 20.9219 4.8125H21.9901C22.4645 4.8125 22.8495 4.4275 22.8495 3.95312C22.8495 3.47875 22.4653 3.09375 21.9901 3.09375Z" fill="#0DB0DF"/>
<path d="M16.8709 3.09375H15.8027C15.3284 3.09375 14.9434 3.47875 14.9434 3.95312C14.9434 4.4275 15.3284 4.8125 15.8027 4.8125H16.8709C17.3453 4.8125 17.7303 4.4275 17.7303 3.95312C17.7303 3.47875 17.3462 3.09375 16.8709 3.09375Z" fill="#0DB0DF"/>
</svg>
